/* XPM */
static char *result[] = {
/* columns rows colors chars-per-pixel */
"50 50 39 1 ",
"  c #532E17",
". c #542E18",
"X c #5B351E",
"o c #5E381F",
"O c #5F3921",
"+ c #633D24",
"@ c #673F29",
"# c #674127",
"$ c #664028",
"% c #6B452A",
"& c #6C4B2D",
"* c #71492F",
"= c #6F4A30",
"- c #734D33",
"; c #765034",
": c #785135",
"> c #775339",
", c #7A553A",
"< c #7E593D",
"1 c #815B3F",
"2 c #835D41",
"3 c #866043",
"4 c #8A6346",
"5 c #8D6649",
"6 c #8F684B",
"7 c #916B4D",
"8 c #956F51",
"9 c #967152",
"0 c #9A7556",
"q c #967559",
"w c #9B7759",
"e c #9D795A",
"r c #A27E5D",
"t c #9E7D61",
"y c #A17F63",
"u c #A3805F",
"i c #A58363",
"p c #A98664",
"a c None",
/* pixels */
"aaaaaaaaaaaaaaaaaaaaaaaaaaaaaaaaaaaaaaaaaaaaaaaaaa",
"aaaaaaaaaaaaaaaaaaaaaaaaaaaaaaaaaaaaaaaaaaaaaaaaaa",
"aaaaaaaaaaaaaaaaaaaaaaaaaaaaaaaaaaaaaaaaaaaaaaaaaa",
"aaaaaaaaaaaaaaaaaaaaaaaaaaaaaaaaaaaaaaaaaaaaaaaaaa",
"aaaaaaaaaaaaaaaaaaaaaaaaaaaaaaaaaaaaaaaaaaaaaaaaaa",
"aaaaaaaaaaaaaaaaaaaaaaaaaaaaaaaaaaaaaaaaaaaaaaaaaa",
"aaaaaaaaaaaaaaaaaaaaaaaaaaaaaaaaaaaaaaaaaaaaaaaaaa",
"aaaaaaaaaaaaaaaaaaaaaaaaaaaaaaaaaaaaaaaaaaaaaaaaaa",
"aaaaaaaaaaaaaaaaaaaaaaaaaaaaaaaaaaaaaaaaaaaaaaaaaa",
"aaaaaaaaaaaaaaaaaaaaaaaa,<<<,aaaaaaaaaaaaaaaaaaaaa",
"aaaaaaaaaaaaaaaaaaaaaa,>qqttt,>aaaaaaaaaaaaaaaaaaa",
"aaaaaaaaaaaaaaaaaaaaa>tt=&=%%ty=aaaaaaaaaaaaaaaaaa",
"aaaaaaaaaaaaaaaaaaaaa>t=><22,@u=aaaaaaaaaaaaaaaaaa",
"aaaaaaaaaaaaaaaaaaaa=5t=<<32,$q1+aaaaaaaaaaaaaaaaa",
"aaaaaaaaaaaaaaaaaaaa=5i=<232>@q1+aaaaaaaaaaaaaaaaa",
"aaaaaaaaaaaaaaaaaaaa=5ii>222>qq1oaaaaaaaaaaaaaaaaa",
"aaaaaaaaaaaaaaaaaaaaa%6iituttq<.aaaaaaaaaaaaaaaaaa",
"aaaaaaaaaaaaaaaaaaaa%:##55521OO=.aaaaaaaaaaaaaaaaa",
"aaaaaaaaaaaaaaaaaaa%6644+++OO>=<&.aaaaaaaaaaaaaaaa",
"aaaaaaaaaaaaaaaaaa%67704444<>>4<--.aaaaaaaaaaaaaaa",
"aaaaaaaaaaaaaaaaa%57900r224,,542<*& aaaaaaaaaaaaaa",
"aaaaaaaaaaaaaaaaa%59wewrrrr0q844,<- aaaaaaaaaaaaaa",
"aaaaaaaaaaaaaaaa%6,9rwuuryrrq9944<+*.aaaaaaaaaaaaa",
"aaaaaaaaaaaaaaaa%692wuupprrrw0994#,&.aaaaaaaaaaaaa",
"aaaaaaaaaaaaaaaa%57r6rupppprr099*21% aaaaaaaaaaaaa",
"aaaaaaaaaaaaaaaa%580r78pppprr91:41:*.aaaaaaaaaaaaa",
"aaaaaaaaaaaaaaaa%69rupp77622115544:*.aaaaaaaaaaaaa",
"aaaaaaaaaaaaaaaa%69ruupupppr886622:*.aaaaaaaaaaaaa",
"aaaaaaaaaaaaaaaa%69rrrupyprr987621,&Xaaaaaaaaaaaaa",
"aaaaaaaaaaaaaaaa%570rrppprr089721>,* aaaaaaaaaaaaa",
"aaaaaaaaaaaaaaaaa+50rrprrrr088622,-.aaaaaaaaaaaaaa",
"aaaaaaaaaaaaaaaaa#%0rrrrrrr08864<,o.aaaaaaaaaaaaaa",
"aaaaaaaaaaaaaaaaa+%--0weew098643OOO aaaaaaaaaaaaaa",
"aaaaaaaaaaaaaaaaa+2&--:0089965%#+o& aaaaaaaaaaaaaa",
"aaaaaaaaaaaaaaaaaa$%*5-;:*-*%%%<++ aaaaaaaaaaaaaaa",
"aaaaaaaaaaaaaaaaaa$-2-;;5:*&<%%#&& aaaaaaaaaaaaaaa",
"aaaaaaaaaaaaaaaaaaa+-22-*:-%%%,&& aaaaaaaaaaaaaaaa",
"aaaaaaaaaaaaaaaaaaaa+-1211,>>>&& aaaaaaaaaaaaaaaaa",
"aaaaaaaaaaaaaaaaaaaaa@;-<<:>&&& aaaaaaaaaaaaaaaaaa",
"aaaaaaaaaaaaaaaaaaaaaa@@----&. aaaaaaaaaaaaaaaaaaa",
"aaaaaaaaaaaaaaaaaaaaaaaaXXo.Xaaaaaaaaaaaaaaaaaaaaa",
"aaaaaaaaaaaaaaaaaaaaaaaaaaaaaaaaaaaaaaaaaaaaaaaaaa",
"aaaaaaaaaaaaaaaaaaaaaaaaaaaaaaaaaaaaaaaaaaaaaaaaaa",
"aaaaaaaaaaaaaaaaaaaaaaaaaaaaaaaaaaaaaaaaaaaaaaaaaa",
"aaaaaaaaaaaaaaaaaaaaaaaaaaaaaaaaaaaaaaaaaaaaaaaaaa",
"aaaaaaaaaaaaaaaaaaaaaaaaaaaaaaaaaaaaaaaaaaaaaaaaaa",
"aaaaaaaaaaaaaaaaaaaaaaaaaaaaaaaaaaaaaaaaaaaaaaaaaa",
"aaaaaaaaaaaaaaaaaaaaaaaaaaaaaaaaaaaaaaaaaaaaaaaaaa",
"aaaaaaaaaaaaaaaaaaaaaaaaaaaaaaaaaaaaaaaaaaaaaaaaaa",
"aaaaaaaaaaaaaaaaaaaaaaaaaaaaaaaaaaaaaaaaaaaaaaaaaa"
};
