/* XPM */
static char *result[] = {
/* columns rows colors chars-per-pixel */
"50 50 126 2 ",
"   c #000100",
".  c #090604",
"X  c #0C0806",
"o  c #1E0606",
"O  c #140A06",
"+  c #1D0B06",
"@  c #150D09",
"#  c #1E0E0B",
"$  c #1D130D",
"%  c #210D0A",
"&  c #21120E",
"*  c #2B130F",
"=  c #261B0A",
"-  c #281B0A",
";  c #37160E",
":  c #221711",
">  c #241911",
",  c #2D1D15",
"<  c #29191D",
"1  c #3F1710",
"2  c #321E16",
"3  c #3B1C14",
"4  c #331D19",
"5  c #3A2E0E",
"6  c #323206",
"7  c #35370B",
"8  c #3D3A0A",
"9  c #2F221B",
"0  c #342117",
"q  c #362910",
"w  c #36241A",
"e  c #39261B",
"r  c #3D291D",
"t  c #3D3019",
"y  c #311E22",
"u  c #3C2921",
"i  c #232232",
"p  c #411B13",
"a  c #491A12",
"s  c #403D07",
"d  c #403D0C",
"f  c #412C1F",
"g  c #58271B",
"h  c #47311D",
"j  c #48311F",
"k  c #4E3D1B",
"l  c #442E21",
"z  c #463122",
"x  c #4D3424",
"c  c #513726",
"v  c #5C3323",
"b  c #533826",
"n  c #5B3927",
"m  c #533629",
"M  c #553B28",
"N  c #593E2A",
"B  c #603726",
"V  c #45400A",
"C  c #4D4411",
"Z  c #53411B",
"A  c #4B4624",
"S  c #574023",
"D  c #5C4025",
"F  c #5C412C",
"G  c #4A4F34",
"H  c #49463F",
"J  c #5F4331",
"K  c #62442E",
"L  c #644A2C",
"P  c #77532A",
"I  c #634633",
"U  c #664831",
"Y  c #6C4C34",
"T  c #704F36",
"R  c #715037",
"E  c #7E5C36",
"W  c #755339",
"Q  c #7A573B",
"!  c #7D593D",
"~  c #7F6638",
"^  c #323045",
"/  c #545740",
"(  c #444153",
")  c #515A54",
"_  c #545E5D",
"`  c #7B5B45",
"'  c #596054",
"]  c #4B5370",
"[  c #535C7C",
"{  c #5E6678",
"}  c #8B6233",
"|  c #86653D",
" . c #926732",
".. c #906934",
"X. c #876A4C",
"o. c #926F48",
"O. c #977542",
"+. c #B9823D",
"@. c #C38A3F",
"#. c #AC8044",
"$. c #BA8C45",
"%. c #A9895A",
"&. c #B68E51",
"*. c #BA9D67",
"=. c #C58B40",
"-. c #CF9243",
";. c #D29543",
":. c #C89B53",
">. c #DAA14F",
",. c #E4A54D",
"<. c #EAA74B",
"1. c #ECAA4E",
"2. c #EDAE53",
"3. c #F0AF51",
"4. c #E7B25B",
"5. c #EEB559",
"6. c #CBA662",
"7. c #DDB160",
"8. c #ECB961",
"9. c #ECC36C",
"0. c #E1C273",
"q. c #5D6685",
"w. c #69779C",
"e. c #6B799E",
"r. c #6C7CA2",
"t. c None",
/* pixels */
"w.) 6 = # + % & $ & & $ & & & & & & & & & & & & & & & & & & $ & $ & & & & & & & % + + - V ' e.r.e.w.",
"_ G 8 5 2 , 2 2 0 0 0 2 2 2 2 2 2 2 2 0 2 0 2 2 2 0 0 0 2 2 0 2 0 9 2 2 2 2 2 2 2 , 2 q C G { q.[ ] ",
"7 8 C Z x m x x c x x c x x x x x x x x c x x x x x x x x c x x c x x x x z x x x x x k C A H ( ^ i ",
"- 5 Z L Y Y Y U U Y U U Y Y Y L Y U Y Y U Y U Y U Y U Y U U Y U Y U U Y Y Y Y Y U Y Y L b r 4 y < : ",
"% w n W ! | W W Q Q Q Q Q Q Q Q Q Q Q Q Q Q Q Q Q Q Q Q ! Q Q Q Q Q Q ! Q ! Q Q ! ! W T m 3 # % % # ",
"# 4 m W ! ` Q | ! ! ! ! ! ! ! ! ! ! ! ! ! ! ! ! ! ! ! ! | Q ! ! ! ! ! ! ! ! ! ! | ` | W m 4 # # + o ",
"% 4 m W ` | Q | ! ! ! ! ! ! ! ! ! ! Q ! ! ! ! ! ! ! ! ! ! ! ! ! ! Q Q ! ! ! Q ! Q ! ! T m 4 # # # % ",
": 4 m B T W ` B R R R R R R R R R R R R R R R R R R T T T T T T R R R R R R R R T W W U m 4 % # # % ",
"% 2 z N I I K F F F F F F F F F F F F J F F F F F F F F F F F F F F F F F F F J K U I K z 2 $ # # : ",
": 2 z n F M x z z z z z z z z z z z z z z z z z z j z z z z z z z z z z z z z z x M N M f 2 % # : % ",
"& 2 l m c x r w w w e e w w w w w w e w e e w w w w w e w e w w w w w e r w w w r x c c j 2 $ # % : ",
"& 2 l n M z r w w w e r e e w w 9 w w e e e r e r e r w w w w w w e e e w w w w r z M n f 2 & # # % ",
"& 2 z K F x r w e r r z f r e e e r r h l l l l u h z r u r w w e r f f f r e w r x F F j 2 & # # : ",
"& 2 x Y U x r w r z c c b z r e e u z x x x x x c x c c z r e e r j c x x z r e r c U Y x 4 % # % & ",
"& 4 M T Y b r w r x M b b c z r r z x c b b b b b b b M x r w e f x b x M x r e r b Y R c 0 & % & & ",
"& w n R Y M r w l x b b c z z z z x x c b b b b b b c b x z e w f x b b M x u e r M Y R M w & # % : ",
": w M Y Y M e e u c b b c c c x x x c c c c c c c b b b x z w e l x M b b x f w r N Y R n 0 & % % & ",
": w M R Y M t e h x b b c c c c b b c c c c c c c c b b c z u u l x c b b x l e r M Y T b w & # & & ",
"% w M R Y M r w u x b c c c c c c c b c c c c c c c c c x z z l z c c b b x f w u N Y T M w & # & & ",
"& w M R Y M u w r x c c c c c c c c c c c c c c c c c c b c x z x x c b c x f w r M Y Y M 0 $ + # & ",
"& w M T Y M u w z x b b c c c c c c c c c c c c c c c c b b b c c c c b c x u w r b U R M 0 $ # % % ",
": 4 M T Y M e w r x b b c c c c c c c c c c c c c c c c b x b x c c b c x l u w u b Y R M 0 & # $ : ",
"& w M T Y M r e r x c b c c c c c c c c c c c c c c c c c c c c c c c c x l u w r M Y Y M e & # % % ",
"& 0 M T Y M e w z x c b c c c c c c c c c c c c b c c c c b c c c M M N N c u u r M Y R M 0 $ # & : ",
"& w N T Y M r w z x c b c c c c b x c c b b c c c c c c c b b x c J Q X.E L u u e M Y T M 0 $ # # : ",
"& 3 M R Y b u w r x b b c c c c b b c c c x b c c c c c b x b b J X.%.&.O.} b r r M Y R M 0 & # % % ",
"& w n Y Y M r w r c c b c c c c c c c c c c c c c c c c c b c N ` *.0.7.,.+.R h r M Y R M w & # $ : ",
"& w M T Y M r w r x b b c c c c c c c c c c c c c c c c c b x I o.6.9.8.2.;.} c r M Y Y M 3 # # % : ",
"$ w M R Y M u w l x b c c c c c c c c c c c c c c c x b c c c I ..:.4.5.3.;. .b r S Y T M w & # # : ",
"& w M R Y M u w u x b b c c c c c c c c b b c c c b b c c c c F | $.1.2.<.@.P h r M Y T n 4 $ # % % ",
"& w M R Y M r e l x b b c c c c c c c b b x c c c c c c b b c M L ..+.@.+. .k e e M Y T M w $ # # : ",
"& w M Y Y M r w u x b b c c b c x b b x c c c c c c b b x b b z z D P } P k e 9 r M Y T M 4 : # % % ",
"& w n T Y M u w u x b b c b c c c c c c c c c b c c c c b x b x l f z k j r 0 , r M Y R M 0 & $ $ & ",
"& 0 M T Y M r w u c c b c x x x c c c c c c c c c c c c b x c x z r w w w w w w r M U R M 0 $ # # & ",
"& 0 M T Y M u w t x b b b x x z l z x c c c c c c c c c c c c c x x l l r r r w r M Y R M w & # & & ",
"& w M T Y M r w l x b c b x l r f z x c c c c c c c c c c c c c c m x z x f f e r M Y Y M 0 & + % & ",
"& w M T Y b r w r x b b c x l w r f x b c c c c c b c c c c b c c c c c b x f w r M Y T b w % # & & ",
"& w M T Y M r w l x b b c x u w e l x b c c c c c c c c c c c x c c c c c c f e r M Y Y M 0 & # % & ",
"& w n T Y M u w l x b b c x l w e f x b b c c c c c c c b c c c c b b M M c f e r F Y R M w & # & & ",
"& w M T Y N r r l x b M c x l r e l x b b b c c c c c c c c c c c c m M c x f r r F T Y M w & # & & ",
"& w N W R F r e l x b n b z l f f l x b M M M b b b M c c c b x c c M M b x z e r F T W M 0 & & & & ",
"& 0 n W Y M r r l x b M b x f f r h x b M M M n n M M M x x z j z c b M b z h e r b T W n 0 & & & & ",
"& 3 v T U c e w l x c M b x f e e f x b c c c c c b M b x l e e f x b M M x r w r x Y T v 3 & & > & ",
"& 1 g n b r w , 9 e r f r e w , 9 w e r f f f r f r r r e w 9 9 0 e f f r e 9 , 9 f c B g p * * & & ",
"& ; a f 2 > > $ $ $ > > > & $ $ $ $ $ > > > > > = > > : $ $ $ $ $ & > > : $ $ $ = > 0 p a p * * & & ",
"& & % O X X . . . . . . . . . . . . . . X . . . . . . . . . . . . . . . . . . . . X O @ % & * * & $ ",
"$ X .                                                                                   . X @ $ # # ",
"  .       t.t.t.                                                              t.t.t.      . . . X . ",
"      t.t.t.t.t.t.t.t.t.t.t.t.t.t.t.t.t.t.t.t.t.t.t.t.t.t.t.t.t.t.t.t.t.t.t.t.t.t.t.t.t.      .     ",
"    t.t.t.t.t.t.t.t.t.t.t.t.t.t.t.t.t.t.t.t.t.t.t.t.t.t.t.t.t.t.t.t.t.t.t.t.t.t.t.t.t.t.t.          "
};
