/* XPM */
static char *result[] = {
/* columns rows colors chars-per-pixel */
"50 50 4 1 ",
"  c #656C17",
". c #72751B",
"X c #787B21",
"o c #7F8226",
/* pixels */
"..................................................",
"..................................................",
"..................................................",
"..................................................",
"..................................................",
"..................................................",
".......................................o..........",
"..................................ooX..XX.........",
"...................................oXX. X..o......",
"................................... XXX .XX ......",
"..................................oX XX..XX ......",
".................................. XX X..  .......",
"................................... X  ...........",
"..................................................",
"..................................................",
"..................................................",
"..................................................",
"..................................................",
"..................................................",
"..................................................",
"..................................................",
"..................................................",
"..................................................",
"...................oo.............................",
"....................oXX...oo......................",
".................... XX..Xo.......................",
".....................  .XXX.......................",
"........................XX .......................",
"........................  ........................",
"..................................................",
"..................................................",
"..................................................",
"..................................................",
"...........................Xo.....................",
"............................oo....................",
"............................XXX...................",
"............................ XX XXoo..............",
".............................  XXX................",
"...............................XX ................",
".Xo....XX......................X .................",
"..oo..XX..........................................",
".. XX.XX..........................................",
".. XX.  ..........................................",
"...  ....................................o........",
"........................................o.........",
".......................................XX.........",
".......................................XX ........",
".......................................  Xo.......",
".........................................XX.......",
".........................................  ......."
};
