/* XPM */
static char *result[] = {
/* columns rows colors chars-per-pixel */
"50 50 240 2 ",
"   c #090604",
".  c #100C09",
"X  c #110E0B",
"o  c #15100B",
"O  c #15110F",
"+  c #1A130C",
"@  c #131110",
"#  c #1C1510",
"$  c #1B1614",
"%  c #1E1A13",
"&  c #1F1A15",
"*  c #1F1F1E",
"=  c #271D15",
"-  c #201C1A",
";  c #361E13",
":  c #21201B",
">  c #26201B",
",  c #26221F",
"<  c #2A211A",
"1  c #2E271F",
"2  c #3D271C",
"3  c #232226",
"4  c #282521",
"5  c #2D2720",
"6  c #2D2826",
"7  c #2E2B27",
"8  c #2A2A2A",
"9  c #342920",
"0  c #342E27",
"q  c #3A2E26",
"w  c #372E2A",
"e  c #332F2D",
"r  c #2F332E",
"t  c #34322E",
"y  c #3A3329",
"u  c #38362D",
"i  c #3A342E",
"p  c #3A3533",
"a  c #393836",
"s  c #3C3934",
"d  c #502D1E",
"f  c #463629",
"g  c #40352E",
"h  c #413A2F",
"j  c #4C3F2F",
"k  c #5C3827",
"l  c #53392C",
"z  c #413935",
"x  c #413B34",
"c  c #443F34",
"v  c #483C34",
"b  c #413C3A",
"n  c #543C33",
"m  c #713627",
"M  c #494034",
"N  c #44413B",
"B  c #49413B",
"V  c #554335",
"C  c #50433B",
"Z  c #50483C",
"A  c #59493B",
"S  c #69412C",
"D  c #72462C",
"F  c #634738",
"G  c #624F3C",
"H  c #734737",
"J  c #75523B",
"K  c #7F553C",
"L  c #3E3D40",
"P  c #424141",
"I  c #444547",
"U  c #494341",
"Y  c #4B4743",
"T  c #4F4441",
"R  c #4B4949",
"E  c #4F4B49",
"W  c #484A4F",
"Q  c #514942",
"!  c #574A42",
"~  c #554D46",
"^  c #594F43",
"/  c #514E4B",
"(  c #504B4F",
")  c #575449",
"_  c #52504F",
"`  c #59514A",
"'  c #5F5149",
"]  c #585250",
"[  c #5A5751",
"{  c #555359",
"}  c #5A5958",
"|  c #624942",
" . c #744A41",
".. c #645245",
"X. c #615844",
"o. c #61574A",
"O. c #755644",
"+. c #705949",
"@. c #615851",
"#. c #675A51",
"$. c #635855",
"%. c #6F5B53",
"&. c #695F52",
"*. c #605A58",
"=. c #625F59",
"-. c #7E5B53",
";. c #76604A",
":. c #676358",
">. c #686059",
",. c #68625F",
"<. c #746153",
"1. c #796051",
"2. c #706259",
"3. c #71675A",
"4. c #79685A",
"5. c #786E5A",
"6. c #5D5A60",
"7. c #616060",
"8. c #616366",
"9. c #6A6761",
"0. c #666468",
"q. c #6A6868",
"w. c #6A6F68",
"e. c #6A6A6F",
"r. c #736662",
"t. c #706861",
"y. c #736E62",
"u. c #706A67",
"i. c #786960",
"p. c #796E62",
"a. c #726F6A",
"s. c #716A6F",
"d. c #787069",
"f. c #78756A",
"g. c #656971",
"h. c #6A7075",
"j. c #717070",
"k. c #707177",
"l. c #747575",
"z. c #787270",
"x. c #7F7270",
"c. c #797772",
"v. c #7B7E75",
"b. c #797878",
"n. c #815745",
"m. c #935F46",
"M. c #836149",
"N. c #876250",
"B. c #826551",
"V. c #896A57",
"C. c #806A59",
"Z. c #846B5F",
"A. c #916B54",
"S. c #867059",
"D. c #8F725F",
"F. c #947258",
"G. c #817061",
"H. c #877663",
"J. c #897061",
"K. c #807168",
"L. c #81766A",
"P. c #887268",
"I. c #89736E",
"U. c #897869",
"Y. c #987764",
"T. c #917869",
"R. c #917B6F",
"E. c #807870",
"W. c #897970",
"Q. c #807A78",
"!. c #8A7B78",
"~. c #977B72",
"^. c #A47D66",
"/. c #A07C6D",
"(. c #978069",
"). c #878477",
"_. c #8A8072",
"`. c #83807A",
"'. c #8A8179",
"]. c #938071",
"[. c #9A8271",
"{. c #998575",
"}. c #938278",
"|. c #92887A",
" X c #9A887A",
".X c #A38875",
"XX c #A4917A",
"oX c #A4987D",
"OX c #717682",
"+X c #797A81",
"@X c #7B7E81",
"#X c #807B81",
"$X c #7A8089",
"%X c #7B8090",
"&X c #828181",
"*X c #888381",
"=X c #8A8882",
"-X c #838188",
";X c #858689",
":X c #8A8989",
">X c #8B8F89",
",X c #928481",
"<X c #938982",
"1X c #998B82",
"2X c #998985",
"3X c #928B88",
"4X c #9B9386",
"5X c #93918A",
"6X c #9C938A",
"7X c #848894",
"8X c #8A8A91",
"9X c #928D91",
"0X c #8D9194",
"qX c #8C929C",
"wX c #939292",
"eX c #9B9492",
"rX c #9C9993",
"tX c #92939B",
"yX c #9A959A",
"uX c #95999A",
"iX c #9B9B9B",
"pX c #A48B83",
"aX c #A59485",
"sX c #A49A93",
"dX c #AA9B95",
"fX c #A39D9B",
"gX c #A9A29A",
"hX c #B5A69F",
"jX c #9497A5",
"kX c #9B9CA3",
"lX c #9F9FA0",
"zX c #9CA5A9",
"xX c #A5A4A5",
"cX c #ADA6A4",
"vX c #A8A8AD",
"bX c #BBB5AE",
"nX c #ABAFB6",
"mX c #AEB6BD",
"MX c #B7B0B3",
"NX c #B9BBBD",
/* pixels */
"+X8.a 0 $ 0 C y O   w.uXwX:XwXkXQ.t.B & X . t *.f.7 =.3X&XwXj.&.3.).E.U.x &.C.h i @.R x @.z.@.8 [ 7 ",
"h.qXkX0.6 . + O   * `.wX-X&Xl.-XQ.`.t.Y p 0 = O , , p / [ &Xj.k.`.W.f.U.q z h i ^ r.u.i.p.E.u.r Y / ",
"g.OX8XtX8X7 - ^ & R *X:XjX$Xa.@X8X#Xf.:.p u.*Xa.t P = . % x E.7X&Xf.`.4.9 $ u r.z.:.t.x.4.2.t.E t z.",
"OX$X%X-X;Xb.4 q U c.9.c.uX7Xk.uXtXk.Q.).R l.>X>X9.E N , $ # 9 ^ v.f.4.4.g 8...u.:Xt.x.1X<.2.t./ 0 =.",
"h.OX0.+XkXvXw.. x W.3.=XzXtX+X#X+Xk.9XQ./ 0.&X:X&Xc.b.[ b 7 6 9 : c 9 q W.<XW.E.9X3XyXW.p.Q.d.3X@.x ",
"g.$XtX7XqXtXkX% E Q.f.#Xk.:X;X-X8X;Xb.u.,.z.&X:X#X8X&X:Xa.` ] { I Q ^ s i.C.x.E.x.d.*X1Xy.*XW.`.d., ",
"7XjXqX8X%X+X!.t j.3Xb.s.8.rX*X-X8X@X+Xz.o.5Xu.j.&X&X+Xl.Q.d.h U t.r.K.R ..J 1.x.d.G.>.5X,Xx.W.<Xf.4 ",
"%X7XqX).a.[ 7.b &X0X:.8.e.-X3XkXwX+X8X_ 8 3X9.7.w.Q.*Xa.K.'.h , &.v.A ! j M.q.x.i.L.t.`.eXQ.z.'.z.i ",
"%XOXk.k.z.9.&.e b.c.t.z.j.q.x.>Xb.Q.a.$ e 3Xb.q.y.a.u.:.A L./   % d.T.' % f.K.2.#.W.!.2XeX`.t.:.Q.` ",
"$X$Xe.0.l.E.^ & &XwX`.=Xk.Q.B E ] !.U = : b c.>.t.Z :.L.G A z { / N @.q   l.wX4.V E.<X1X'.f.9.t.*.i ",
"%XOX+Xz.) q < , P [ c.q.a.c.@.T v , e [ =.I =.u.f.Z h X.y & #.cXnXxX2.4   N 3Xd.&.5.n V 2.>.@.d.~ < ",
"k.k.,.x % >.x.@.0 + B [ B M h 0 & % 7 ` x.cXb O e B % o O + @.sXiX2XcXkX*Xv A 9.3.+.+.G 3.o.i.E.& = ",
"[ a.h . r.rXrXsXp.C 6 = > 5 + # b e v ! W.I.<Xu : # - 4 0 t %.}.T.Z.fXnXeX<X^ c.U.S.G.y 0 Y j i & # ",
"$ O + =.yX:X5XwX'.|.'.Q 0 E b B z Y 2X XC.R.K.'.x g p 4 i i I.N.1.~.I.2XtX0Xq ) #.f 9 O . o + - b + ",
"= 4 b ;X+X&X8X6X{.U.6XaXG.B u i t u.sX].C.J.;.P.'.x g z z.'.G N.J.Z.V.eXzXeXM 9 i M ` E Y / z.z.k.] ",
"1 w =.c.Q.Q.`.wX6X}.1X6X6Xi.B y ( ,XG.U.J.n.D.W.2X^ Y ! O.+...!.J.2.Z.x.yX5X% ` }.,X5X'.L.'.9XjXwX*X",
"y ] :X3Xd.f.L.`.<X|.aX1X6XcX3X@.*.W.J.I.pX}.<XrX<X) M ..!.O.F #.,X~.D.%.J.6X; E yX:X<XeX3XH.5X,X).3X",
"B *X&X=XW._.'.5Xb.*X6X6XxXvXvXQ.- o.2Xx. XdX9X8XxX4.j T.{.N.D d C ~.T.[.{.{.v a rX1X XpX6X1Xz.x.}.!.",
"] uXwX5X6X3XeX#Xs.yXiX:XwX8XfXlX/ $ @.1X~.2XtXtXiXV o.;.Z.Y.K  .4.}.~.,X X.X<.3 9X1X6X1X/.*Xb.%XE.9X",
"z 9XzXiX*X<X9X:.h.;X8Xv.) ,.xXvX,X$ X < j `.zX;X3XB A n.A.A.Y.J.T.eXcXL.i.{.U.$ :XeXzX<X.XwXb.k.=X#X",
"z 8.7X$X&X9.j.c.c.b.wX;X=X5X;X#X~ # a - 4 6 q.*Xx.g F n.M.Y..XF.N.T.}.(.B.<XgXX I NXdXhXhXhXgXxX6X,X",
"=.P jX8X@X0.w.*X;X-X*X5X,.e 6.kX4X] s.,.u.N u u 7 < D.(.F..XpXY.N.F.Z.A.N.P.dXs   B f f <.T.d.[ ! 4.",
"c.4 7.8Xe.b.b.7XiX=X3.x O R 3XjX9Xz.kXiX6X>.A #.# 6 N.B.F.(.J.pXY.V.J.P.(.F.4.Q ^ C / p   o $ @ N i ",
"p O 4 8.+Xb.3XQ./ e ^ B z.lX7XwX' z.:X8X:XZ.>.|.^ ~ V.n.A.[.,X_.F.F.J.V.F.F.B y 2.3.>.[ W *.e.h._ 7.",
"& g 9 5 7 7 * $ X q x.t.t e *.x I 8Xb.k.Q.F.G.vXi.B ^.^.F.kX:XwXZ.[.A.F.F.Y.q > h s } ,XiXtX~.R.cX=.",
"i.#.C g t , , U i V U.a.6 0 0 i } iX:Xa.E.].R.vXeXN T..XhXNXwXxX8X{.^.Y.F.pXC 4 ' Q.eX6XL.xX-.F  XeX",
"8X-X#X;X>.z T / ` Z >.u.,.$.' ,.e.wXzXeXL.i.F.P.x.B B j >.3.a.a.q.C J.N.Z.fX! q.p.I.Z. XV.T.k  .R.wX",
"OXOXqX%X;XN g Q.#X,.Y t.a.,.Q.z.OXtXzXzXp.~.;.4...' x 7 1 5 e b =.< g 2 1 N :.`.'.' k pXn.K H H ,XtX",
"+X7X%X7Xe.E B wX`.,.u.z.c.b.&X&Xb.w.b.!.2XMXcXdXXX[.wX:./ [ ` 9.:X:.M z 9 i ] 3XeX1XN./.A.H m H ~.7X",
"s.7X8X+X-X6.u.yX0XY R b.0X&X7X+Xz.u.2.+.U.mXkXtXdXV.hXL.[ :.#.>.z.=XY N z v a.iXQ.W.Y.V.^. .H J ].:X",
"qX$X+X-XxX{ u.-X9XB y *X0XtX0X8X8X:Xp.+.L.6XK.i.i.C.aX<X/ [ / :.t.j.=.Z _ 8.=XiX:XG.Y.J N.K n.N.|.iX",
"7X+X-X7X8X=.t.b.f.B E b.wXtXqXzX;X).sXE.H.{.J.`.!.p.<.{.N ~ M ` d.t.[ x N =.5XrXxXeXH.D K Y.n.S T.kX",
"k.,.z.;X] @.E.Q.x.N t.Q.7X+Xk.j.&.{.6X'.G.1X(.A.C.G.].G.B ^ C #.`.E.^ c B E Q.wX<X}.m.V.n.A.A.m K fX",
"#XQ.3Xc.u.x Q L.d.` 9.a.@X-Xb.a.T.hXwXW.K.}.(.^.B.1.S.{.C v C t.b.a.Q.=.w @.f.:XR.J.F H D.F.n.K n.*X",
";Xl.l.Q.yX7 c ^ ~ q ,.z.h.+X;X:XoXaXyX=X].T.S.S.O.F J J.^ y o.f.5XwX3Xt.` =.y.>.J.T.V N.Y.D.Y.N.(.*X",
"b.k.g.9.E X ] W.p.% u s.Q.k.+X`.|.(.<X#.^ +.2.|.<X2XE.E.>.5 u.#XtXNXv.[ / t.`.l J.gXB.V.N.~.F.A.N.pX",
"7.R q.v p $ 5 Q.t.# , k.7.=Xb.8XeX XA ' #.1.'.vXrX:XwXwX!.$ @.&X9XkXwX=Xp ).`.O.Z.~.n.D.F.D.K O.n.| ",
"[ N , = i w 4 ] 5 . 7 uXE _ z.&X+Xv.J.W.L.C.K.+X'.Z.<X*X'.5 9 f.b.k.5X5X- Q.W.G.P.P.C.N.Y.M.m.J A.D ",
"4 > 4 4 b _ a o 6 p x u.wX_ = i C a.6X2XyXG.R.9X:XsXxXiX'.t 7 y t.:.f., > a.`.5XP.'.-.<.N.J n.D n.D ",
"x 0 1 Q $.~ $.B ] ,.] [ 9.Q.L q w U wX9X@.h N 7.*.U @.=.N E ,.6 % 5 e , 7 u.z.sX:X;.S n.Z.J n.S K n.",
"C 0 ] =XgX3XeX'.>.0.,.U B U ,.*.7 5 b B 1 > p e w i , 7 p z.xX>.i 4 7 @.w ' &XrX6X1.1.F N.N.O.H F -.",
"q *.9X0XiXcXfXQ.a.&Xu.Q b ~ ` *.N b 7.).C g A o.G.' i N Y >.hX6X@.s N }.t.C 3Xf.G.1. Xk S Z.G.J.f T ",
"E zXtXz.Q.<X'.=X3X&X<X,.C Q Q &.U *.wXgX`.Q J.J. X3.0 ` R a.sXsXi.h @.}.a.i d.=X{.P.U.D k 1.4X|.k C ",
",.*X5XQ.<XrXf.Q.eXa.c.@.z >.[ @.[ =X5XfXbX[ g &.>.~ U I E f.dX6XgXf U ,X` @ B p.4XP.J.J J C.6Xs.l Q ",
",.E.=X`.:X).5XeX'.>.t.:.1 t _ ) Q.gXrXlXxXrXy % N U [ t.u.W.W.i.fX#.L r.#.@ , 9 Z A 9 l 2.i.u.q 2 : ",
"d.<XfXxXiX=X5X<X).:X5XL.x / *.9.Q.rXiXvXvXgX|.b ] s E.3Xi.i.J.T.<X X$.9 C [ ] B 4 = g Q [ x 5 = > , ",
":X:XlXxXuX'._.|.'.5XdXj.b >.9.l.iXrX6X6XNXvX4X` s z t.`.}...+.}.d.Z.K.>.~ *.9.[ ` o.[ k.h.*Xz.o.E g ",
"z.`.fXyX,XL.:XU._.L.fX#.: &XP.&.;XwX=X!.xXxXaXW._ Y Q K.2.3.6X'.'.P.V.W.,Xz.:.b.) ,.=Xi.5.8X0X&X,.6 ",
"u.:Xz.yX=X)._.U.|.L.rX,.6 z.,X}.=XW.t.f.rXrXwXrXo.%.V v t.kXeX1XG.K.U.<X|.3X+Xh.3.L.XXF.<XuX;XQ.K.E ",
"w.`.W.p.E.|.<X4X4X|.cXT 0 :.j.&X+Xf.i.9.*XvXrXcXW...A ^ =X:XW.!.].'.W.|.L.:X9X:.3.K D ;.>X3XvXE.<X*X"
};
