/* XPM */
static char *result[] = {
/* columns rows colors chars-per-pixel */
"64 64 4 1 ",
"  c #9C6546",
". c #A3754E",
"X c #74A334",
"o c #56864C",
/* pixels */
"XXXXXXXXXXXXXXXXXXXXoXXXXoXXXXXXXXXXXXXXXXXXXXXXXXXXXoXXXXXXXXoX",
"XXXXXoXXXXXXXXXXoXXoXXXXXXoXXoXXXXXooXXXXXXXXXXXXXXXXoXXoXXXXXoX",
"XXXXoXXXoXXXXXXXXXoXXXXoXXoXoXXoXXooXXXXXXXXXXXXXXXXooXo ooXXoXX",
"XXXXoXXoXXXXXXoXXXoXXooooXoooXXoXXoXXXXXoXXXXXXXXXXoo.o...oXooXX",
"XXXXooXoXXXXXXooXooXooooooooooXoXooXXXooXXXoooXXXXo....... oooXX",
"XXXXXoooXXXoXXoooooooo........ooo.oXXoXXXXooXXoXXo..........oooX",
"XXXXXXooXXXooXo..ooo   ..........  ooXXXXooXXXXXXo     ......ooX",
"XXXoXXXooXXXooo           ....      oXXXoooooXXXXXo       ....oo",
"XXXXoXXXooXXXo  .......         ....oXXooXXXXoXXXXXo...       oX",
"XXXXoXXXXoooo.......................oXooXXXXXXXXXXo..........oXX",
"XXXXXoXXXXo   .............   .......ooXXXXXXXXXXoo........  ooo",
"XoXXXXoooo.........   .............   oXXooXXXXXooo   ......oXXo",
"XooXXXo . ...  ..       . ...  ..     oXooXXXXXXoo      . ..oXXX",
"XXoooo..........   .............   ....ooXXXXXXXXo ..........oXX",
"XXXXo...................................oooooXXXXXo..........ooX",
"XXXXXo.     ...........     ...........   ooXXXXXXo....     .oXo",
"XXoooo         .....           .....      oXXXoXXo..         oXX",
"XXXXXo.....           .....           ...oooXXXXooo   .....  oXX",
"XoXXo...  ......    ....  ......    .... oooooXXXXXo ...  ..oooX",
"XXooo....................................ooXXXoXXXo .......oXXXo",
"XXXoo.....  ..............  ..............ooXXXoooo ......  oXXX",
"Xoooo.....................................oooXXXXXo ....... ooXX",
"oXXXo  ..........      ..........      ....ooXXXXo     ..... ooX",
"XXXoo     ....            ....            .oooXXooo       ... oo",
"XXooo..         .......         .......    ooXXXXXXo...       oX",
"XXXoo......................................oXXXoXXo ........ oXX",
"XXXooo.....   .............   .............ooooXXoo .......  ooo",
"oXXXoo.............   .............   .....ooXXXooo   ......oXXo",
"XoXXXoo . ...  ..       . ...  ..       . .oooXXoo      . ..oXXX",
"XXooooo.........   .............   ........oXXoXXo  .........oXX",
"XXXXooo...................................oXXXXXXXo .........ooX",
"XoXXXo.     ...........     ...........   ooooXXXXo ...     .oXo",
"XXXXoo         .....           .....      oXXXXXXXo          oXo",
"XXXooooo...           .....           .....oXXXXXXo   .....  ooX",
"XXXXXXXoo ......    ....  ......    ....  ooooXXXo  ....  ...oXX",
"XXXXXXooXo...............................oXXXooXoo..........oXXX",
"XXXXXooXXo  ..............  ..........ooooXXXXoXooo.......  oXXo",
"XXXXXXXXXoo..........................oXXXXoXXXXXXoo..........ooo",
"XXXXXXXXooXo.....      ..........  ooooXXXXoXXXXXXo    ......oXX",
"XXoXXXXooXXo..            ....    oXXXooXXXoXXXXXXXo      ....oX",
"XXXoooooXXXo    .......         .oooXXXooXXXoXXXXXo....       oo",
"XXXXXooXXXXoo...............ooo..oXooXXXooXXXXXXXo...........ooX",
"XoXXooXXXXoXXo.ooo........ooooooooXXoXXXXXXXXXoXXo......... oooX",
"XXoooXXXooXXXooXoXooooooooooXooXooXXXXXXXXXXXXXXXXo   .....oooXX",
"XXXXXXXoXXXXXoXXoXXoooXooooXXoXXXoXXXXXXXXXXXXXXXXXoo o . oXooXX",
"XXXXXXXXXXXXooXXoXXoXoXXoXXXXoXXXXXXXXXXXXXXXXXXXXXXooXo.ooXXoXX",
"XXXXXXXXXXXooXXXXXoXXoXXXXXXoXXoXXXXXXXXXXXXXXXXXXXXXoXXoXXXXXoX",
"XXXXXXXXXXXXXXXXXXXXXXoXXXXoXXXXXXXXXXXXXXXXXXXXXXXXXoXXXXXXXXoX",
"XXXXXXXoXXooXXXoXXXoXXXoXXooXXXooXXXooXXoXXXXXXXXXoXXXXXXooXXoXX",
"ooXXXooooXoXXXoXXXoXXXoooXoXXXoXXoXXXoXooooXXXooXXXoXXXXXoXXXoXX",
"XXooooo  ooXXooooooXXoo  ooXXooooooXXoo. oooooXXXXXXooooooXXoooX",
"XXXooo ..  oo     oXoo ..  oo   ...oo.....oooXXXooXXo     oooooo",
"XXXXo ....   ..... o  ....   ............. oXXXXXXoo .....  ooXX",
"XXoo .............. ........................ooXXXoo  ...... oXXX",
"XXo    ..........      ..........      ......oXXXoo .  ..... oXX",
"Xo        ....            ....            ....oXooo       .  ooo",
"XXo  ..         .......         .......      oXXXXo  ..      ooX",
"XXXo .......................................oXXXXXXo ....... oXX",
"ooo .......   .............   .............  oooooo  ....... ooo",
"XXoo  .............   .. ..........   ......ooXXXXoo  ....  oooX",
"XXXo    o ...  .. o     o   .  ..      o. ..oXXXXoXXoo    oooooo",
"XXXXo  oXooo  oo oXooo oXooo  oooo .oooXo..oXXXXoXXXoXooooooXooX",
"XXXXXooXXXooooXXooXXoXooXXooooXXXXooooXXXooXXXXXoXXXoXXooooXXoXX",
"XXXXXXXXXXXooXXXXoXXoXXoXXXooXXXXXXooXXXXXXXXXXXoXXXoXXXoXXXXoXX"
};
