/* XPM */
static char *fde13d6e66894b94a3c733573ddd104036JLPEFFm6PB1r7q[] = {
/* columns rows colors chars-per-pixel */
"48 48 5 1 ",
"  c #ADBC3A",
". c #A8A129",
"X c #D3865F",
"o c #BD7959",
"O c white",
/* pixels */
"     .          .  .      .  .     ..           ",
"    .   .         .    .  . .  .  ..            ",
"    .  .      .   .  .... ...  .  .     .       ",
"    .. .      .. .. .......... . ..   ..   ...  ",
"     ...   .  ........XXXXXXXX...X.  .    ..  . ",
"      ..   .. .XX...oooXXXXXXXXXXoo..    ..     ",
"   .   ..   ...oooooooooooXXXXoooooo.   .....   ",
"    .   ..   .ooXXXXXXXoooooooooXXXX.  ..    .  ",
"    .    ....XXXXXXXXXXXXXXXXXXXXXXX. ..        ",
"     .    .oooXXXXXXXXXXXXXoooXXXXXXX..         ",
" .    ....XXXXXXXXXoooXXXXXXXXXXXXXooo.  ..     ",
" ..   .oXoXXXooXXoooooooXoXXXooXXooooo. ..      ",
"  ....XXXXXXXXXXoooXXXXXXXXXXXXXoooXXXX..       ",
"    .XXXXXXXXXXXXXXXXXXXXXXXXXXXXXXXXXXX.....   ",
"     .XoooooXXXXXXXXXXXoooooXXXXXXXXXXXooo..    ",
"  ....oooooooooXXXXXoooooooooooXXXXXoooooo.   . ",
"     .XXXXXoooooooooooXXXXXoooooooooooXXX...    ",
" .  .XXXooXXXXXXooooXXXXooXXXXXXooooXXXXo.....  ",
"  ...XXXXXXXXXXXXXXXXXXXXXXXXXXXXXXXXXXXX..   . ",
"   ..XXXXXooXXXXXXXXXXXXXXooXXXXXXXXXXXXXX..   .",
" ....XXXXXXXXXXXXXXXXXXXXXXXXXXXXXXXXXXXXX...   ",
".   .ooXXXXXXXXXXooooooXXXXXXXXXXooooooXXXX..   ",
"   ..oooooXXXXooooooooooooXXXXooooooooooooX...  ",
"  ...XXoooooooooXXXXXXXoooooooooXXXXXXXoooo..   ",
"   ..XXXXXXXXXXXXXXXXXXXXXXXXXXXXXXXXXXXXXX.   .",
"   ...XXXXXoooXXXXXXXXXXXXXoooXXXXXXXXXXXXX.... ",
".   ..XXXXXXXXXXXXXoooXXXXXXXXXXXXXoooXXXXX..   ",
" .   ..oXoXXXooXXoooooooXoXXXooXXoooooooXoX...  ",
"  .....XXXXXXXXXoooXXXXXXXXXXXXXoooXXXXXXXX.  . ",
"    ...XXXXXXXXXXXXXXXXXXXXXXXXXXXXXXXXXXX.     ",
" .   .XoooooXXXXXXXXXXXoooooXXXXXXXXXXXooo....  ",
"    ..oooooooooXXXXXoooooooooooXXXXXoooooo.     ",
"   .....XXXoooooooooooXXXXXoooooooooooXXXXX.    ",
"       ..oXXXXXXooooXXXXooXXXXXXooooXXXXoo....  ",
"      .. .XXXXXXXXXXXXXXXXXXXXXXXXXXXXXXX.   .. ",
"     ..  .ooXXXXXXXXXXXXXXooXXXXXXXXXX....    . ",
"         ..XXXXXXXXXXXXXXXXXXXXXXXXXX.    .     ",
"        .. .XXXXXooooooXXXXXXXXXXoo....    .    ",
"  .    ..  .XXooooooooooooXXXXoooo.   ..   .    ",
"   .....   .ooooXXXXXXXoooooooooX...   ..   .   ",
"     ..    ..XXXXXXXXXXXXXXX...XX. ..   ..      ",
" .  ..    .  .X...XXXXXXXX........  .         . ",
"  ...   ..   .. . .......... .. ..              ",
"       .     .  .  ... ....  .   .              ",
"            ..  .  . .  .    .                  ",
"           ..     .  .      .  .                ",
"                      .    .                    ",
"       .  ..   .   .   .  ..   ..   ..  .       "
};
