/* XPM */
static char *ea596278b99a41f6bce9ec4b51cb1666lZNoOS6XEd1fnT49[] = {
/* columns rows colors chars-per-pixel */
"64 64 7 1 ",
"  c None",
". c black",
"X c #001835",
"o c #001938",
"O c #003B82",
"+ c #0F7CFF",
"@ c #80B9FF",
/* pixels */
"                                                                ",
"                                                                ",
"                                                                ",
"                                                                ",
"                                                                ",
"                                                                ",
"                                                                ",
"                                                                ",
"                                                                ",
"                                                                ",
"                              ..                                ",
"                             .X@.                               ",
"                             .X+.                               ",
"                            .oX+@.                              ",
"                            .oX+@.                              ",
"                           .OoX+@@.                             ",
"                           .OoX+@@.                             ",
"                          .OOoX+@@@.                            ",
"                          .OOoX+O@@.                            ",
"                         .OOOoX+O@@@.                           ",
"                         .OOOoX+OO@@.                           ",
"                        .OOOOoX@OO@@@.                          ",
"                        .OOOOoX@OO@@@.                          ",
"                       .OOOOOoX@O@@@@@.                         ",
"                       .OOOOOoX@O@OO@@.                         ",
"                      .OOOO+OoX@O@OO@@@.                        ",
"                      .OOOO+OoX+O@O@@@@.                        ",
"                     .OOOOO+OoX+O@O@@@@@.                       ",
"                     .O++OO+OoX@@@O@@@@@.                       ",
"                    .OO+++O+OoX@@O@@@@@@@.                      ",
"                    .OOO++++Ooo@@O@@OOOO@.                      ",
"                   .OOOO++++Ooo@@OOOOOO@@@o                     ",
"                   .OO++++OoooX@@@OOOO@@@@.                     ",
"                   .OOO++OOoooo@@@@@@@@@@@.                     ",
"                   .+++OO++OOOO@OooOOoOoOO.                     ",
"                   .++OO+++OOOO@OooOOoOOoO.                     ",
"                    .+O+O+OOOOX@OooOOOoOo.                      ",
"                    .OO+O+OOOOX@OoooOOoOO.                      ",
"                     .OO+OOOO+X@OoooOOoo.                       ",
"                     .OO+OOO++X@OoooOOoo.                       ",
"                      .O+OOO++X@OoooOOO.                        ",
"                      .O+OO+++X@OoooOoo.                        ",
"                      .OOOO+++X@OoooOoo.                        ",
"                       .OO++++X@OoooOo.                         ",
"                       .OO++++X@OoooOo.                         ",
"                        .O++++X+OoooO.                          ",
"                        .+++++X+OoooO.                          ",
"                         .++++X+Oooo.                           ",
"                         .++++X+Oooo.                           ",
"                          .+++X+OOOo                            ",
"                          .+++X+OOO.                            ",
"                           .++X+OO.                             ",
"                           .++o+OO.                             ",
"                            .+o+O.                              ",
"                            .+o+O.                              ",
"                             .O+.                               ",
"                              ..                                ",
"                                                                ",
"                                                                ",
"                                                                ",
"                                                                ",
"                                                                ",
"                                                                ",
"                                                                "
};
