/* XPM */
static char *a3558c961895460a89892a3157d5a6ec0E2H5OzMbXi3FYwd[] = {
/* columns rows colors chars-per-pixel */
"64 64 240 2 ",
"   c #5B1100",
".  c #691A00",
"X  c #751A00",
"o  c #7A1E00",
"O  c #630500",
"+  c #682B0C",
"@  c #742402",
"#  c #7A2502",
"$  c #752A03",
"%  c #7C2902",
"&  c #77270A",
"*  c #7A330A",
"=  c #693718",
"-  c #7A3816",
";  c #732C15",
":  c #6A3B27",
">  c #7A3820",
",  c #53270C",
"<  c #77411F",
"1  c #5B4D3D",
"2  c #68452B",
"3  c #794A2B",
"4  c #644C3B",
"5  c #684835",
"6  c #784B34",
"7  c #795639",
"8  c #6F533D",
"9  c #5C5345",
"0  c #575648",
"q  c #575B56",
"w  c #5E4C42",
"e  c #645243",
"r  c #67584B",
"t  c #785B45",
"y  c #635C53",
"u  c #6C5E54",
"i  c #705548",
"p  c #5F645E",
"a  c #7D6248",
"s  c #68635A",
"d  c #796558",
"f  c #6E614E",
"g  c #5B6663",
"h  c #6C6A62",
"j  c #686D69",
"k  c #64716C",
"l  c #7A716A",
"z  c #6C7873",
"x  c #777A77",
"c  c #776F6D",
"v  c #861D00",
"b  c #832C00",
"n  c #872905",
"m  c #893709",
"M  c #933C0A",
"N  c #943909",
"B  c #873816",
"V  c #9A3D14",
"C  c #973C19",
"Z  c #932A01",
"A  c #993E21",
"S  c #894418",
"D  c #9B4215",
"F  c #94441B",
"G  c #9A461C",
"H  c #9C4B1D",
"J  c #964A18",
"K  c #974A15",
"L  c #A54B0C",
"P  c #AB4C16",
"I  c #A24C1D",
"U  c #AB4F1B",
"Y  c #A44918",
"T  c #B24D18",
"R  c #A55314",
"E  c #AB5415",
"W  c #A4541D",
"Q  c #AC531B",
"!  c #AB591C",
"~  c #A7581F",
"^  c #B2541D",
"/  c #B45416",
"(  c #8B4B24",
")  c #854927",
"_  c #944B22",
"`  c #9C4C23",
"'  c #9C4C2A",
"]  c #974322",
"[  c #9C522B",
"{  c #98572A",
"}  c #854B31",
"|  c #855233",
" . c #8B5235",
".. c #825A3B",
"X. c #895639",
"o. c #9C5D34",
"O. c #995637",
"+. c #8A502E",
"@. c #A34D23",
"#. c #A84A23",
"$. c #A55523",
"%. c #AB5423",
"&. c #AC5A24",
"*. c #A3542B",
"=. c #AA552B",
"-. c #A45A2C",
";. c #AC5A2B",
":. c #A45827",
">. c #B35423",
",. c #B45A24",
"<. c #B4552B",
"1. c #B25C2C",
"2. c #BA5726",
"3. c #A45531",
"4. c #A45B32",
"5. c #AA5936",
"6. c #B55B36",
"7. c #AE4D29",
"8. c #966137",
"9. c #AB602C",
"0. c #A7612E",
"q. c #B4642D",
"w. c #A46333",
"e. c #AB6435",
"r. c #B56338",
"t. c #875D4A",
"y. c #A35940",
"u. c #866556",
"i. c #926B5A",
"p. c #9A735C",
"a. c #89654C",
"s. c #B67855",
"d. c #B06B49",
"f. c #87776C",
"g. c #8A7B73",
"h. c #917468",
"j. c #76827D",
"k. c #BB805E",
"l. c #88887A",
"z. c #928571",
"x. c #968C74",
"c. c #B68972",
"v. c #CE8D67",
"b. c #748482",
"n. c #7C8787",
"m. c #878C8A",
"M. c #918F8C",
"N. c #999587",
"B. c #889595",
"V. c #929D9C",
"C. c #989B96",
"Z. c #879090",
"A. c #A49894",
"S. c #99A29F",
"D. c #A7A292",
"F. c #949FA1",
"G. c #9BA4A2",
"H. c #9CA6A5",
"J. c #9EAFB6",
"K. c #A6ABA7",
"L. c #ACB1AC",
"P. c #B1AFB3",
"I. c #ACB5B4",
"U. c #ABB5B8",
"Y. c #B3B4B4",
"T. c #B5B9B6",
"R. c #B3B6BB",
"E. c #B4BCBA",
"W. c #BCBDBC",
"Q. c #BABBB6",
"!. c #A4AFB1",
"~. c #C4BDBB",
"^. c #C8BDBB",
"/. c #E2AC89",
"(. c #BBC3BD",
"). c #BAC4BA",
"_. c #C5C6BB",
"`. c #D6C6BD",
"'. c #E0CABF",
"]. c #B5BDC3",
"[. c #BCC4C4",
"{. c #BECAC5",
"}. c #BCC5C9",
"|. c #BDCACA",
" X c #B5C3C4",
".X c #BDCFCE",
"XX c #C4C5C4",
"oX c #CBC5C5",
"OX c #C3CBC5",
"+X c #C9CAC5",
"@X c #C3C6CA",
"#X c #C3CBCB",
"$X c #CBCCCB",
"%X c #CAC5CA",
"&X c #D3CBC4",
"*X c #D3CECB",
"=X c #DBCAC2",
"-X c #C6D1CC",
";X c #CAD1CC",
":X c #C6D0C6",
">X c #D3D3CD",
",X c #D6D4CC",
"<X c #C3CED1",
"1X c #CBCDD2",
"2X c #C7C7D1",
"3X c #D1CDD2",
"4X c #CCD3D3",
"5X c #C6D1D1",
"6X c #D3D3D3",
"7X c #D6DADA",
"8X c #DBDCDC",
"9X c #DBD9D5",
"0X c #E4CFC4",
"qX c #E6D2C6",
"wX c #E3DEDA",
"eX c #DCE0DE",
"rX c #E7E3DE",
"tX c #DEE2E1",
"yX c #E3E5E4",
"uX c #EBECEC",
"iX c #EAEAE4",
"pX c #EBF0EF",
"aX c #EDF2F2",
"sX c #F4F5F5",
"dX c #F5FDFB",
"fX c #FAFAFA",
"gX c #FEFDFB",
"hX c #FBFDFC",
"jX c #FBFFFF",
"kX c #FCFEFD",
"lX c #FFFFFD",
"zX c #FDFFFE",
"xX c #FEFEFE",
"cX c #FEFFFF",
"vX c white",
"bX c #FFFEFF",
"nX c #FCFCFC",
"mX c #FEFEFE",
"MX c #F8FAF7",
"NX c #F2F1EF",
/* pixels */
"xXxXxXxXxXxXxXxXxXxXnXxXxXxXxXxXxXxXxXxXjXkXjXhXxXxXxXxXxXxXxXxXxXkXkXkXkXkXgXgXxXxXxXkXkXkXkXkXxXxXxXxXxXxXxXxXxXxXxXxXxXxXxXxX",
"xXxXxXxXxXxXxXxXxXxXxXhXxXxXxXxXxXxXxXjXxXxXxXxXhXhXjXhXhXhXMXhXkXxXkXxXkXkXkXkXfXnXkXgXgXkXkXkXxXxXxXxXxXxXxXxXxXxXxXxXxXxXxXxX",
"xXxXxXxXxXxXxXxXxXnXnXnXxXxXxXnXkXkXkXjXhXhXjXhXxXxXxXxXxXhXkXkXfXnXfXfXfXfXkXfXnXnXxXxXkXxXxXxXxXxXxXxXxXxXxXxXxXxXxXxXxXxXxXxX",
"xXxXxXxXxXxXxXxXxXnXnXnXxXxXxXnXhXhXkXjXhXxXxXxXxXxXxXxXxXxXkXjXxXxXxXxXxXxXxXxXxXxXxXxXxXxXxXxXxXxXxXxXxXxXxXxXxXxXxXxXxXxXxXxX",
"xXxXxXxXxXxXxXxXxXxXxXxXxXxXxXxXxXxXxXxXxXxXxXxXjXjXhXhXhXhXjXhXxXxXxXxXxXxXkXfXxXxXxXxXxXxXnXjXxXxXxXxXxXxXxXxXxXxXxXxXxXxXxXxX",
"xXxXxXxXxXxXxXxXxXxXxXsXuXsXnXsXsXnXMXjXhXhXjXjXxXxXxXxXxXxXxXjXxXxXxXxXxXxXxXxXxXxXxXxXxXxXxXxXxXxXxXxXxXxXxXxXxXxXxXxXxXxXxXxX",
"xXxXxXxXxXxXxXxXsXxXnXyX6X6X7X9XeXeXtXtXtXyXtXyXuXpXpXsXaXsXsXdXxXjXxXjXxXxXxXxXfXdXxXjXxXjXjXxXxXxXxXxXxXxXxXxXxXxXxXxXxXxXxXxX",
"xXxXxXxXxXxXxXxXnXxXnXwXXXXXXX@X[.XXXXOX@XOX$X#X#X#X$X;X4X6X6X6X7X7X7XeXtXtXtXyXuXpXaXaXaXMXfXfXxXxXxXxXxXxXxXxXxXxXxXxXxXxXxXxX",
"xXxXxXxXxXxXxXxXnXxXfXyXP.XX$X%X#X#XOXXX{.OXXX[.).XX[.[.[.XXOXXXOX#X@X@X@X|.@X@X#X2X2X5X4X4X4X4X7X8X3XyXxXxXxXnXxXxXxXxXxXxXxXxX",
"xXxXxXxXxXxXxXxXxXxXfXiXY.@X$X$X$X;X;X$X#X#X#XOX@X#X@XOXOX#XOXOX}.}.@X@X@X@X<X@X@X|.@XOX@X#X2X#XXX*X].9XxXxXxXsXxXxXxXxXxXxXxXxX",
"xXxXxXxXxXxXxXxXxXxXsXyXY.XX6X@X#X;X4X;X;X;X#X-X#X(.[.OX#X#X{.#X}.}.|.|.#X|.<X|.}.#X|.#XOX#X|.@XXX%XQ.6XnXnXxXnXxXxXxXxXxXxXxXxX",
"xXxXxXxXxXxXxXxXxXxXMXiXY.XX$XXX[.[.{.#X#X#X#X;X(.I.I.{.-X#X-X4X4X4X<X<X#X<X@X<X}.|.<X<X<X<X#X<X$X$XW.7XnXnXxXnXxXxXxXxXxXxXxXxX",
"xXxXxXxXxXxXxXxXnXxXnXuXQ.XX%XW.K.K.K.I.I.L.I.E.I.H.K.).XX[.[.;X#X|.2X|.|.<X|.|.[.|.<X<X<X<X#X<X$X$XW.8XxXnXnXnXxXxXxXxXxXxXxXxX",
"xXxXxXxXxXxXxXxXnXxXxXsXQ.%X$X[.Z.j.z j.n.n.m.m.B.m.m.B.G.V.S.H.!.!.!.U.U.U.U.].E.].}.[.[.]. X}.2XXXW.wXxXxXxXxXxXxXxXxXxXxXxXxX",
"xXxXxXxXxXxXxXxXnXxXxXuXY.Q.XXXXn.j q g g p p g j j k k z z z z b.b.b.n.n.Z.Z.B.B.V.V.V.V.G.!.U.$X%X].yXxXxXxXxXxXxXxXxXxXxXxXxX",
"xXxXxXxXxXxXxXxXMXxXnXyXK.Y.XXXXC.z q 0 0 e 9 e 1 9 r 9 9 r y r y y r y u s h q j h h h j x Z.F.@XXX~.yXxXfXnXMXxXxXxXxXxXxXxXxX",
"xXxXjXxXxXxXxXxXsXxXfXsX$XE.|.(.V.h 1 7 7 ( ( ( - + | | 3 | ) } 2 : +.3 3 3 7 2 2 7 3 6 i w z J.4X[.Q.sXhXhXxXkXxXxXxXnXnXxXnXxX",
"jXjXxXxXxXxXxXnXnXxXxXsX4XE.:X XV.h 4 | { K R R m m ` [ _ ' G ` - - H S J S +.= 3 +.S ) 6 w z J.4X[.E.sXhXxXxXxXxXxXnXxXxXnXxXnX",
"jXjXxXjXxXnXnXnXfXxXxXsX6X).#X{.G.h 4 7 { W R ! D m [ -.' :.$.$.B B :.H ~ (  .< - _ ] _ } 5 j U.1X(.E.sXhXxXxXxXxXxXxXnXxXnXnXxX",
"xXjXxXxXnXxXnXxXxXxXxXMX7X(.-X|.H.h 4 ..{ ~ ! ^ Y M *.4.*.=.$.=.A A ,.! 9.:.4.) B ' @.@. .6 c R.$X].E.MXjXxXxXxXxXxXxXxXnXxXnXnX",
"jXjXxXxXxXxXnXxXMXxXnXnX7XE.:X|.K.z e ..o.W Q Q Q N @.=.$.=.U ,.C C >.U 2.%.=.S F =.<.=.O.6 f.P.@X[.W.MXxXjXxXxXxXxXxXnXxXnXnXxX",
"jXjXjXxXnXnXxXnXnXxXnXjX7X).-X|.!.c e ..{ $.Q E ^ N I =.%.>.P >.C C >.T ^ Q ;.F ` =.<.%.O.| f.R.+XXX[.xXxXxXxXfXxXxXnXxXnXxXxXnX",
"xXjXxXxXxXnXnXxXnXnXjXjXtX).:X-XI.x e ..o.:.^ / >.N I %.%.>.T 2.V V 2.T / ^ 1.F #.<.>.>.4.X.f.).$XOXXXxXxXjXxXnXxXxXxXnXnXxXnXxX",
"jXjXxXxXnXnXxXnXnXxXnXjX7X X.X-X!.x e ..o.&.^ ^ 2.N I %.7.^ T 2.V V / L / P ;.D G 7.U U w.X.z.).$X@X@XxXxXxXxXjXxXxXnXxXnXnXxXnX",
"jXjXxXxXnXxXnXxXnXnXxXnXuXI.{.4XE.m.w 6 o.&.Q Q ^ N U 1.>.Q T 2.V Y E T / / W H @.1.Q U w...z.).OXE.tXMXnXxXkXxXxXxXnXxXnXnXxXnX",
"hXjXxXxXxXnXxXnXnXnXxXfXpXI.{.4XU.j.e 7 o.;.Q ^ >.V U =.7.Q P ^ D =.q.E E ! :.S H ;.P H o.7 l.:X@XT.eXhXnXxXkXxXxXxXxXnXxXnXnXxX",
"jXhXxXjXxXnXxXnXfXhXxXjXpXI.{.4X].g.e 6 o.:.Y P 2.V @.=.$.<.>.,.m :.&.L L ! $.m ` &.Q K { 7 l..XOXE.eXjXnXjXxXxXxXxXnXxXnXxXxXnX",
"jXjXxXkXnXxXnXxXxXxXxXjXpXE.OX5X].m.i 7 o.;.>.Q U G =.*.@.6.>.=._ e.q.! ! q.w.{ ` ;.q.9.8.t l.{.{.T.tXhXhXxXfXxXxXxXxXnXxXnXnXxX",
"jXhXxXxXxXxXxXnXxXnXxXjXpXE.|.-X].m.f 7 o.6.,.,.<.*.d.6.5.6.=.;.3.[ &.Q ! ~ [ -.*.=.6.;.X.a M.-X[.T.yXjXnXjXnXkXxXxXnXxXnXxXnXxX",
"xXjXkXjXxXxXnXnXxXnXxXjXaXE.#X-X].m.r : < M N Z V m ' ' ' ' ` *.5.-.:.,.&.W ` ' ] C V B < 7 C.5X[.E.yXxXhXxXnXkXxXxXxXnXxXnXnXnX",
"jXjXkXxXxXxXnXxXxXxXxXjXaX(.|.#X@XM.i : * b b b % O . & ; * % B + & b b b % @ @ n & b # + 7 C.<X[.T.tXxXnXhXnXxXxXxXnXxXxXnXxXnX",
"xXxXxXxXxXnXxXnXxXnXxXxXsX).#X#X@XM.u 5 ) ` %.~ *.# $ - B B n B % B D M V G F B % X # * = a G.#X[.E.yXxXnXjXnXxXxXxXxXnXnXxXnXxX",
"xXxXxXxXxXxXxXxXxXnXxXfXMX@XW.$X%XC.q w  .=.P Q r.& n 6.1.$.=.*.m &.$.~ :.;.-.* _ w.s.+.a.d M.K.].W.sXnXxXMXnXxXxXxXxXxXxXxXxXxX",
"xXxXxXxXxXxXxXxXxXnXxXnXfX@X_.$X%XF.g 0 X.*.Q ~ 0.& n 2.^ Y =.@.N ! ! $.:.:.-.* _ v./.i.a f K.OXW.~.sXMXxXnXxXxXxXxXxXxXxXxXxXxX",
"xXxXxXxXxXxXxXxXxXnXxXkXxX$XXX$XoXC.g 0  .=.R ! =.$ n <.Q L =.@.N ! &.:.*.-.[ * [ v./.p.a r Y.6XW.].sXMXxXnXxXxXxXxXxXxXxXxXxXxX",
"xXxXxXxXxXxXxXxXxXfXxXxXxX3X%X$XoXK.j 0 X.=.Q E w.$ Z 2.E W ;.@.N &.=.-.*.-.[ $ d.s.O.p.u.h P.2XW.XXfXnXxXnXxXxXxXxXxXxXxXxXxXxX",
"xXxXxXxXxXxXxXxXxXfXxXnXxX6X%X>XoXK.k 9 X.=.Q E ;.* V >.E E ;.@.m =.=.-.4.3.' $ d.k.+.c.d g.Y.#XW.%XxXxXxXnXxXxXxXxXxXxXxXxXxXxX",
"xXxXxXxXxXxXxXxXxXfXxXnXxX6XXX$X%XK.k 9  .=.E ~ 0.m V >.E R ;.H b =.=.=.3.3.' $ 5.v.s.c.5 g.E.;XW.%XxXxXxXnXxXxXxXxXxXxXxXxXxXxX",
"xXxXxXxXxXxXxXxXxXsXxXfXxX6XXX$X_.K.j.1 | &.! R 9.S G 2.R R ;.G b %.=.*.5.:.@.@ -.d.k.p.5 f.).>X].$XxXxXxXnXxXnXxXxXxXxXxXxXxXxX",
"xXxXxXxXxXxXxXxXxXnXxXkXxX3XXX+X:XK.j.0 | ;.! E 0.B Y 2.R R ;.G b ~ :.&.=.=.H % q.S 8.| i f.).;X~.$XxXxXxXnXxXnXxXxXxXxXxXxXxXxX",
"xXxXxXxXxXxXxXxXxXnXnXnXxXyXW.$X:XL.j.1 7 &.! E { J D U Q ! $.G b &.1.$.$.&.~ % W { o.| 8 z.)._.Q.8XxXxXxXxXxXnXxXxXxXxXxXxXxXxX",
"xXxXxXxXxXxXxXxXxXnXnXnXxXiXW.1X+XL.j.0 7 :.! ! o.H #.>.! ! *.F $ W &.%.~ %.I # R W 0...7 z.)._.Q.8XxXxXnXxXxXnXxXxXxXxXxXxXxXxX",
"xXxXxXxXxXxXxXxXxXnXnXnXxXuXXX$X+XY.b.q | :.~ ! { _ #.7.Q ~ :.] % %.q.&.=.! R b R ~ 0.8.7 x._.:XQ.tXxXxXnXjXxXxXxXxXxXxXxXxXxXxX",
"xXxXxXxXxXxXxXxXnXnXnXnXxXuX~.$X+XI.j.0 6 [ ~ ~ [ ( C 7.Q ~ :.` % I :.:.$.%.Q N ! ~ w.8.a x._.:XW.yXxXxXfXfXxXnXxXxXxXxXxXxXxXxX",
"xXxXxXxXxXxXxXxXxXxXnXnXxXNXXX$X6XE.b.q X.5.1.9.o.[ *.<.&.&.5.3.F =.5.7.3.<.6./ 9.W _ 3 7 N.XXXXXXyXnXxXnXnXxXxXxXxXxXxXxXxXxXxX",
"xXxXxXxXxXxXxXxXxXnXnXsXxXsXXX$X6X].n.q t.=.1.q.d.o.7.6.~ $.3.' ' 5.' A C C V n * $ * = 5 N.#X#XXXyXxXxXnXxXxXxXxXxXxXxXxXxXxXxX",
"xXxXxXxXxXxXxXxXxXxXxXMXxXsX%X$X3X}.B.p 6 ] D K ( B C C D m B B & B & & X X X O # # - > 8 A.$X1X@XiXxXxXnXxXxXxXxXxXxXxXxXxXxXxX",
"xXxXxXxXxXxXxXxXxXxXxXsXxXsXXX$X1X}.B.q : @ @ @ @ . X v @ $ $ @ X & o B A C A Z I *.y.a.u.A.$X<X@XuXxXxXnXxXxXxXxXxXxXxXxXxXxXxX",
"xXxXxXxXxXxXxXxXxXsXxXxXxXxXXXOX{.).S.f 7 +.#.A 7.v Z >.P H ~ J $ ` ` #.7.2.7.v #.6.O.3 a.D._.).XXuXxXxXxXnXMXxXxXxXxXxXxXxXxXxX",
"xXxXxXxXxXxXxXxXxXsXxXsXxXxX+XXX).).N.f 3 X.5.5.<.v Z 2.,.&.&.H $ J F C Y #.T n C *.} 2 t D._._.XXfXxXkXnXxXxXxXxXxXxXxXxXxXxXxX",
"xXxXxXxXxXxXxXxXxXnXxXsXxXxX1XXX.X{.C.u 4 7  .y.3.& v ' 4.4.o.S + 3 A ) A A ] X ' y.| 2 a D.).(.XXnXxXsXsXnXxXnXxXxXxXxXxXxXxXxX",
"xXxXxXxXxXxXxXxXxXxXxXsXxXxX6X[.}.}.V.j 9 5 6 6 } ; + B +.X.3 : , 2 6 6 } A >   ; : 2 4 l K.OXOX$XnXxXfXnXxXxXMXxXxXxXxXxXxXxXxX",
"xXxXxXxXxXxXxXxXnXxXxXnXxXxX6X[..X.X].V.l.g.p.z.i.t.t.i.p.p.i.a 8 u.u.i.i.u.t.: d u.h.g.A.W.|.[.$XuXfXxXxXxXnXxXxXxXxXxXxXxXxXxX",
"xXxXxXxXxXxXxXxXnXxXxXxXxXuX$X[.].<X}.].$X_._.`.0X0X'.qXqXqX0X0X`.qX=XqXqX'.qX`.`.oXoX%X*X2X[.R.XX$X7XuXxXxXnXxXxXxXxXxXxXxXxXxX",
"xXxXxXxXxXxXxXxXnXxXnXnXsX3XXX%X].].[.@X6X6X>XeXoX,X&X&X=X,X&X=X*X9X*X,X,X&X9X,X,X&X%X6X3X1X%X%XW.XX].%XyXfXMXxXxXxXxXxXxXxXxXxX",
"xXxXxXxXxXxXxXxXnXxXMXnXiXXXQ.2X@X2X@X@X4X#X:X;XOX>X:X_.;X,X*X6X%X1X%X6X>X+X,X;X>X*X%X*X3X%X%X3XXX$X~.Y.6XsXnXxXxXxXxXxXxXxXxXxX",
"xXxXxXxXxXxXxXxXnXsXnXMXyX@XXX6X3X3X2X%X+XOX-X;X:X:X:X:X$X$X$X$X$X%XXX@X;X;X;XOX+XOX_.+XoX%XoXoX3X$XXXXX7XsXxXxXxXxXxXxXxXxXxXxX",
"xXxXxXxXxXxXxXxXxXxXxXxXiX%XXX%XoXoXoX$X+X+XOX(.{.(.OX{.OX$X+X+X%X$X$X;X;XOX:X_.+X:X:X+XoXoX^.&X~.W.Q.XX9XsXxXxXxXxXxXxXxXxXxXxX",
"xXxXxXxXxXxXxXxXnXMXnXsXtXXXY.W._.`._.&X+X_.).).:XOXOX:X+X+X+X+XXX+X$XXXQ.Q.).:X).Q.~.~.~.~.^.^.oX@X%X3XyXMXxXxXxXxXxXxXxXxXxXxX",
"xXxXxXxXxXxXxXxXnXnXxXxXsXyXrXyXiXiXiXrXiXrXeX9X:X:X+XOX+X+X+X+X+XoX_.T.L.L.(.:X,X,X,X9XwXrXrXrXuXuXuXuXMXxXxXsXxXxXxXxXxXxXxXxX",
"xXxXxXxXxXxXxXxXxXxXxXxXxXxXxXxXhXMXkXgXkXkXkXfXkXkXkXkXxXkXkXkXgXgXfXsXNXNXkXkXfXfXfXkXgXgXhXhXxXxXxXxXxXxXxXnXxXxXxXxXxXxXxXxX",
"xXxXxXxXxXxXxXxXnXnXnXsXMXMXnXxXMXdXMXMXfXfXnXnXxXkXkXkXhXhXMXMXMXgXkXxXkXxXkXfXxXnXfXkXMXdXdXdXxXxXxXxXxXxXxXnXxXxXxXxXxXxXxXxX",
"xXxXxXxXxXxXxXxXxXxXxXxXjXxXxXnXdXdXdXdXxXxXnXnXnXnXnXxXjXjXjXhXMXkXnXnXnXnXnXfXnXxXxXxXdXdXdXdXMXnXnXxXnXsXxXxXxXxXxXxXxXxXxXxX",
"xXxXxXxXxXxXxXxXnXnXxXxXxXxXxXMXdXdXdXdXjXxXfXfXnXnXnXxXxXdXjXkXkXkXnXnXfXnXnXnXnXnXxXjXdXdXdXdXjXxXxXxXnXnXnXxXxXxXxXxXxXxXxXxX"
};
