/* XPM */
static char *c0a2207d221047e5ae49bd411089e0bfSahzaY8TeOPcpFsB[] = {
/* columns rows colors chars-per-pixel */
"64 64 15 1 ",
"  c None",
". c #14161F",
"X c #32222E",
"o c #252A32",
"O c #79390A",
"+ c #442B61",
"@ c #62507E",
"# c #CE2038",
"$ c #915816",
"% c #8A0B41",
"& c #CEAF47",
"* c #81709A",
"= c #A096D1",
"- c #C3CBDB",
"; c gray99",
/* pixels */
"                           ;                                    ",
"                           ;;                                   ",
"                            ;;;                                 ",
"                             -;;                                ",
"                              -;                                ",
"                              --;                               ",
"                               -;;                              ",
"                                -;;                             ",
"                                 -;;                            ",
"                                 --;                            ",
"                                  -;;                           ",
"                                   -;;                          ",
"                                    -;;                         ",
"                                    --;;                        ",
"                                     --;;ooo                    ",
"                                      --oo..                    ",
"                                      oooo$                     ",
"                                     oo..o$$                    ",
"                                     .. $$O$                    ",
"                                        OOO$                    ",
"                                         OOOo                   ",
"                                         $OOo                   ",
"                              ------    $$OO.                   ",
"                             ===---=    $OOO                    ",
"                             =======   $OOO                     ",
"                            =***====   ++++                     ",
"                            ****oooo  @@@++                     ",
"                            ****=o=o @@@+++                     ",
"                             XX**o*o@@@+++                      ",
"                            @&XX====@@+++                       ",
"                           @@X&=====@+++                        ",
"                           @&&%==***+++                         ",
"                           @&&%*****++                          ",
"                           @+++++%%%                            ",
"                           +++++##%%@                           ",
"                           +++++##%%@@                          ",
"                           @+++##%%%@@$                         ",
"                           +++###%%%++$$                        ",
"                           $+##%%%% +O$$                        ",
"                          O$$%%%%%$  OO$$                       ",
"                         O$OO$%%%$$$  OO$$                      ",
"                         +OOOO$$$$OO   OO$$                     ",
"                        +++OOOOOOO++    OO$$                    ",
"                       $$$OO%%%%%OO$$   OOO$                    ",
"                       OOO++%###%++OO   O  $                    ",
"                       @@@@++#%%%%++++                          ",
"                       @@@@++#%%%%@@@++                         ",
"                      @@@@@++#%%%%@@@@@                         ",
"                      @@@@++####%%@@@@@                         ",
"                      @@@+++#%###%+@@@@--                       ",
"                      +@@++ ## #%+++@@---                       ",
"                     ----+     #  +++---=                       ",
"                     ==---         +---==                       ",
"                     ====-          =====                       ",
"                      ====           OOO$                       ",
"                      $OOO           OO$$                       ",
"                      $$OO            O$$                       ",
"                      $$O             OO$$                      ",
"                      $$O              O$$                      ",
"                     $$OO              OO$$                     ",
"                    $$OOO               OO$$                    ",
"                                                                ",
"                                                                ",
"                                                                "
};
