/* XPM */
static char *_888e06f3f4843a7d238ff5d335297c8zK1jjzD56Noi6wqM[] = {
/* columns rows colors chars-per-pixel */
"64 64 15 1 ",
"  c None",
". c #14161F",
"X c #32222E",
"o c #252A32",
"O c #79390A",
"+ c #442B61",
"@ c #62507E",
"# c #CE2038",
"$ c #915816",
"% c #8A0B41",
"& c #CEAF47",
"* c #81709A",
"= c #A096D1",
"- c #C3CBDB",
"; c gray99",
/* pixels */
"                                                                ",
"                                                                ",
"                                                                ",
"                                                                ",
"                                                                ",
"                                                                ",
"                                                                ",
"                                                                ",
"                                                                ",
"                                                                ",
"                                                                ",
"                                                                ",
"                                                                ",
"                                                                ",
"                                                                ",
"                                                                ",
"                                                                ",
"                                                                ",
"                                                                ",
"                                                                ",
"                                                                ",
"                                            ------              ",
"                                           ===---=              ",
"                                      ==== =======              ",
"                                     ======***====              ",
"                                     ==*******oooo              ",
"                                   @@*********=o=o              ",
"                                 @@@@++@ X&&X**o*o              ",
"                               @@@@+++++&&%===***               ",
"                             @@@++++++ +&&%***%%                ",
"                            $$++++++   +%%%%%%%%                ",
"                    o     $$$OO+++    +@+###%%%%                ",
"                    ooo  $$$OOO+      $######%OOO               ",
"                     ooo$$OOO        O$$%%%%%$OOOO              ",
"                ;;;;-....OO         O$OO$%%%$$$OO               ",
"            ;;;;;----..             +OOOO$$$$OO OO              ",
"       ;;;;;-----     ..           @++OOOOOOO++                 ",
"     ;;;----           .           ++OO#%%%%++++                ",
"   ;;---                          $$$++####%+++@+               ",
"  ;                               OOO++###%++@@@@               ",
"                                  @@++++###%+@@@--              ",
"                                  @@++++%##%%+@---              ",
"                                 @@+++++ %%%%%---=              ",
"                                 @@++++      ---==              ",
"                                 ---==       =====              ",
"                                 -====       OOOOO              ",
"                                 ====        OO$$$              ",
"                                $OOOO        OO$$O              ",
"                               $$OOO         O$$OO              ",
"                               $OOO          OO$O               ",
"                              $OOO           OOOO               ",
"                              OOOO           OOO                ",
"                              OOOO            OOOO              ",
"                                                                ",
"                                                                ",
"                                                                ",
"                                                                ",
"                                                                ",
"                                                                ",
"                                                                ",
"                                                                ",
"                                                                ",
"                                                                ",
"                                                                "
};
