/* XPM */
static char *fcc28e9c1c184ffe9761c0bd3a60d4d7vdZzO62eWnBU4HzI[] = {
/* columns rows colors chars-per-pixel */
"64 64 15 1 ",
"  c None",
". c #14161F",
"X c #32222E",
"o c #252A32",
"O c #79390A",
"+ c #442B61",
"@ c #62507E",
"# c #CE2038",
"$ c #915816",
"% c #8A0B41",
"& c #CEAF47",
"* c #81709A",
"= c #A096D1",
"- c #C3CBDB",
"; c gray99",
/* pixels */
"                                                                ",
"                                                                ",
"                                                                ",
"                                                                ",
"                                                                ",
"                                                                ",
"                                                                ",
"                                                                ",
"                                                                ",
"                                                                ",
"               ;;;;;                                            ",
"                 -;;;;;;          o                             ",
"                  ------;;;;;;    o                             ",
"                        -----;;;;-ooo$$                         ",
"                             -----.oo$$$                        ",
"                                  ..$OOO.o                      ",
"                                  ..OOOO..                      ",
"                              ------ OOO                        ",
"                             ===---= $OO                        ",
"                             ======= OOO                        ",
"                            =***==== +++                        ",
"                            ****oooo+@++                        ",
"                            ****=o=@@+++                        ",
"                             XX**o@@@++                         ",
"                            @&XX*@@@++                          ",
"                           @@X====@+++                          ",
"                           @&=====+++                           ",
"                           @&==***++@@                          ",
"                           @+*****+%@@@                         ",
"                           +++++##%%+@@@                        ",
"                           +++++##%%++@@@$                      ",
"                           @+++##%%% ++@+$$                     ",
"                           +++###%%%  ++O$$                     ",
"                           $+##%%%%    +OO$$                    ",
"                          O$$%%%%%$      OO$$$                  ",
"                         O$OO$%%%$$$       OO$$                 ",
"                          OOOO$$$$OO        OOO$                ",
"                         ++OOOOOOO++        OO $                ",
"                        ++OO%%%%%OO$$                           ",
"                       $$$++%###%++OO                           ",
"                       OOO@@###%%%++++                          ",
"                        @@@@+##%%%@@@++                         ",
"                        @@@@+###%%%@@@@                         ",
"                       @@@@++ ###%%@@@@                         ",
"                       @@@+++  ###%%@@@--                       ",
"                       @@@++    %%%%@@---                       ",
"                       +@@+       +++---=                       ",
"                      ----+        +---==                       ",
"                      ==---         =====                       ",
"                      ====-         OOOOO                       ",
"                      O====          OOO$                       ",
"                       OOOO          OO$$                       ",
"                       O$$O           O$$                       ",
"                        $$O           OO$$                      ",
"                        $$O            O$$$                     ",
"                       $$OO            OO$$$                    ",
"                      $$OOO             OO$$$                   ",
"                                                                ",
"                                                                ",
"                                                                ",
"                                                                ",
"                                                                ",
"                                                                ",
"                                                                "
};
