/* XPM */
static char *_15d86340a89427384a0feb1e3042f3fjuzZTcoUSSQv2DrZ[] = {
/* columns rows colors chars-per-pixel */
"64 64 182 2 ",
"   c #170900",
".  c #1C0C01",
"X  c #1E1006",
"o  c #230E00",
"O  c #2A0E00",
"+  c #261302",
"@  c #2C1401",
"#  c #2E1904",
"$  c #2C1909",
"%  c #331501",
"&  c #391601",
"*  c #341A03",
"=  c #3B1C03",
"-  c #341B08",
";  c #3B1E09",
":  c #372207",
">  c #3D2204",
",  c #352109",
"<  c #3C220B",
"1  c #3C2211",
"2  c #431E02",
"3  c #491E02",
"4  c #431E0A",
"5  c #442303",
"6  c #4A2503",
"7  c #452904",
"8  c #4C2904",
"9  c #44240A",
"0  c #4A260A",
"q  c #45290B",
"w  c #4C2A0B",
"e  c #522503",
"r  c #5A2602",
"t  c #522A04",
"y  c #5B2C05",
"u  c #52260B",
"i  c #532C0B",
"p  c #5A2D0B",
"a  c #4F310F",
"s  c #543105",
"d  c #5D3006",
"f  c #54310C",
"g  c #5C320C",
"h  c #5F380F",
"j  c #432511",
"k  c #4A2613",
"l  c #442913",
"z  c #4D2C12",
"x  c #542710",
"c  c #532E12",
"v  c #5A2D12",
"b  c #552F18",
"n  c #553214",
"m  c #5C3413",
"M  c #5C3915",
"N  c #533218",
"B  c #5B3519",
"V  c #5C391A",
"C  c #632F05",
"Z  c #622E0D",
"A  c #653406",
"S  c #683405",
"D  c #643904",
"F  c #6C3B03",
"G  c #63340C",
"H  c #6A360C",
"J  c #64390D",
"K  c #6C3B0C",
"L  c #723C0D",
"P  c #793E0C",
"I  c #642E12",
"U  c #633513",
"Y  c #693613",
"T  c #653A14",
"R  c #6C3C14",
"E  c #62361A",
"W  c #653B1A",
"Q  c #6C3D1A",
"!  c #723D15",
"~  c #793F12",
"^  c #713E1A",
"/  c #673E20",
"(  c #6B3E21",
")  c #6D410E",
"_  c #794407",
"`  c #74420D",
"'  c #7B450D",
"]  c #76490D",
"[  c #7D490E",
"{  c #6D4114",
"}  c #67401A",
"|  c #6D411C",
" . c #744214",
".. c #7A4513",
"X. c #764914",
"o. c #7D4A14",
"O. c #72451E",
"+. c #75451D",
"@. c #76451C",
"#. c #75461C",
"$. c #73431C",
"%. c #784319",
"&. c #7A4418",
"*. c #78451A",
"=. c #7B461E",
"-. c #7C471D",
";. c #7A451B",
":. c #75491D",
">. c #784A18",
",. c #7D4B18",
"<. c #7E4A1B",
"1. c #7E481C",
"2. c #7D4A1D",
"3. c #7D4F1E",
"4. c #7C4B1B",
"5. c #7D5017",
"6. c #7F5018",
"7. c #674023",
"8. c #6D4421",
"9. c #6F4824",
"0. c #714322",
"q. c #774723",
"w. c #724422",
"e. c #784321",
"r. c #794422",
"t. c #754925",
"y. c #7A4920",
"u. c #7A4B21",
"i. c #7B4B24",
"p. c #754C2A",
"a. c #7A4C28",
"s. c #79512D",
"d. c #83460F",
"f. c #81460C",
"g. c #88470D",
"h. c #864A0E",
"j. c #824B0D",
"k. c #884A0D",
"l. c #894C0E",
"z. c #864711",
"x. c #844613",
"c. c #824612",
"v. c #824A11",
"b. c #804913",
"n. c #844911",
"m. c #814F10",
"M. c #804C13",
"N. c #834A15",
"B. c #854915",
"V. c #844B14",
"C. c #874B15",
"Z. c #854C15",
"A. c #864E15",
"S. c #864F16",
"D. c #834C14",
"F. c #8B4F11",
"G. c #8B4F15",
"H. c #8A4D14",
"J. c #80461C",
"K. c #814E19",
"L. c #834E18",
"P. c #864E1B",
"I. c #864C1C",
"U. c #824C1B",
"Y. c #8B4E19",
"T. c #865014",
"R. c #845114",
"E. c #8D5115",
"W. c #8E5317",
"Q. c #8A5215",
"!. c #86511D",
"~. c #84511C",
"^. c #88541A",
"/. c #8B531B",
"(. c #935313",
"). c #925118",
"_. c #804920",
"`. c #844F23",
"'. c #815120",
"]. c #855322",
"[. c #865220",
"{. c #895321",
/* pixels */
"@ w f M M w w w 6 2 * * = = = = > > > 7 < . * l c N B n i f i = * f h J J s i i t 5 & & ; = = 5 > 5 5 w < + - l n M M n g B N ; ",
" .!.F.Q.W.Z.' P U w = 5 9 8 7 w e e t s t 5 M | $.$.R %.<.<.w.m $.[.Z.T.^.o...` U 6 4 q 0 6 8 8 t t t e e 3 T q. .$.+.=.=.J.0.U ",
" .P.h.h.E.Z.n.d.T 6 5 8 t t 8 5 6 6 8 7 5 6 | y.Y U T +.=.+.| E X.P.n.k.H.n.B.n.R e 5 6 w t 8 8 9 5 8 7 5 5 Q =.Y U Y $.%.X.R U ",
"T +.X.o.,.>.3.'.R e 2 6 7 8 8 5 5 5 9 9 > > } q.Q Q | w.^ R W B G %...n.D.o.K.P.H e 2 0 6 8 8 5 5 5 7 7 > > Q e.8.Q Q | ^ | Q B ",
"G X.B.Z.b...o.o.U 3 2 0 8 8 t 5 6 2 5 8 5 2 Y ^ &. .R K ~ ! ^ Y d X.j.M.[ ] X.] p 6 3 w w i 8 5 6 5 6 8 5 5 E ^  .{ ! R ! ! ^ U ",
"e S F P L S S C y 6 9 9 9 0 9 2 q 5 5 5 = % b W U W W W R ! Q p e A K L K H G A p 6 2 < 2 5 0 9 0 5 5 9 : * N B M T W Q R ^ Q b ",
"5 i g g g c n 8 u 0 = @ % = = 9 $ @ @ + + o 1 j q j l z z w 5 * 0 p Z Z v b v u i 9 = @ * = > = # * + o o o 1 j q < < w t t 5 & ",
"w i i i 6 5 9 9 2 5 > : > > = @ O = 0 k z 9 w 8 z 2 * 5 i f n w 7 i i y 5 5 6 5 2 5 > > < > * % o < 0 z N w n 8 z 5 0 U $.&.X.R ",
"X.{ G 6 0 5 5 7 8 6 a s 8 p n = w 9.O.! r.<.X.c.i.K K 5.^.Q.E.F.o.{ G 8 9 9 5 8 e 8 s i e y i = t t.+.! r.J.,.o.`.!  .~.E.l.E.E.",
"' b...e 3 5 8 e e 5 6 8 6 e e 2 V 9.Q G Q 8.$.q.$.J T 3.T.H.Y.I.[ D. .p 3 9 6 8 8 7 9 8 6 8 w > M 9.R G Q | 0.w.Q U T 4.,.M.D.o.",
"j.^.J.r 2 5 s t i 9 5 5 5 5 5 : U t.$.H Q | 8.| Y T T  ...f.c...[ E. .r 3 6 t e 8 5 5 5 6 5 5 * M p.| R ^ 8.Q Q Q W Y %.,.B.o.X.",
"_ o.! 3 3 0 7 8 5 5 5 5 7 q 7 > p ^  . . .R ! ^ | T g K D.W.T.b.` ..H e 2 w w t 5 6 5 5 6 8 6 2 y | %. .! ! ^ ^ Q G y S ..C.n...",
"J J g 0 k ; < q 6 6 6 5 6 6 4 & 0 B Y Y R W ^ ^ | m y p K L K A T J p 6 9 4 = 9 6 6 q 5 5 9 ; - 9 B W T Y Y Q ^ 8.M t y K K H A ",
"w 8 u 0 9 % % = : , - * % % O o < l q w z z c t k 2 2 u g Y U v 8 8 t 0 2 % % = : - # # @ @ + o 1 j q q z k c i q = = 9 t i w w ",
"5 w i t 8 2 2 5 < @ * < 9 9 q < 5 9 2 2 ; - = * = = 2 4 e t 9 = 0 p m p i w 6 t 5 % * 6 6 8 t 7 6 6 5 = ; ; > = = * : 5 5 5 ; @ ",
"b W w.! q.y.a.r.y.H K [.W.E.Q.M. .! G u 5 2 8 7 8 7 w t t s 7 - n Q %.Q 0.a.i.:.i.G R !./.^.R.R. .L A u 2 2 w 7 e 6 t s e p w = ",
":.+.Q I Q 0.+.$.R T  .<.D.Z.^.R.' o.J 6 2 6 8 t 7 6 w 6 5 e 6 5 :.| Y G Q 0.O.| R T  .b.A.A.R.o.j.K.T 5 6 6 7 s 6 5 7 6 6 t 6 = ",
"$.:.^ ^ Q %.$. .R G K X.f.j.b.` Z.!.R 6 2 t 7 6 8 > > 5 7 8 > q | $.$.^ ! ^  .%.T J H  .j.c.[ ..Z.!.R e 2 w 8 6 w 5 > 5 9 8 > : ",
"J Q $.R ! ! R ! 0.U J &.N.H.P.o... .g 3 2 0 f 7 6 6 6 5 6 6 = - G Q %.^ ! R ! ^ | U J  .b.H.P.,.`  .Z 3 2 z 8 6 6 6 5 5 6 w 2 = ",
"m W Q Q Q Q Q ^ W i p H ! L ! H ) G y 0 2 5 q w 2 6 w 5 7 t 5 = m W W Y Q Q Q Q W i t G L ! L T K g y 6 5 5 9 9 2 5 7 5 6 6 > * ",
"0 z z i n N b n c 5 6 i G G g i y t i q = O % = < , - + + @ o . 5 w 0 9 x b c u z 5 5 y G G d t t t w 0 = % * = < - - @ @ + o . ",
"6 6 2 2 ; 2 = = = = = w 6 t w 2 2 t c i 0 6 6 0 j @ @ > 0 z q 9 6 0 5 = = = * = & * = 0 t i 6 = 5 u m c 0 0 0 0 j @ * 7 f i w z ",
"R { p 0 9 9 5 5 8 w i i t t 6 = m Q | | w.a.q.a.:.J { ~.E.E.Z.M. .R U x 9 9 6 7 w 8 w f t t 9 = Y Q | Q q.a.a.a.a.J  .{./.).Y.o.",
"j...H e 3 6 8 t e 7 8 6 5 t w = t.w.H G %.&.! %.| g $.U.c.F.W.B.j...H 6 3 6 8 t 8 7 7 5 6 8 w = p.O.T A  .&.! &.W G >.b.f.F.).n.",
"b.`.R 6 2 0 0 w 8 5 > 5 9 0 9 : | a.| J Q +.w.Q | h K >.N.N.J...b.`.R 6 3 0 0 i 8 > > 7 6 0 5 5 | w.R T Y 0.t.Q | J { X.,...N.X.",
"M.o.A 6 6 i 8 5 6 7 7 6 3 3 5 6 y R %.%.! R R ! Q g G X.z.H.n.f.o...A 5 6 w 8 5 5 6 7 5 3 6 5 > G { +.=.! R ! R Q d K  .B.d.B.o.",
"A G t 2 2 5 6 6 6 9 5 5 0 0 = = U W W Q Q T R O.( v y R ! P F F S J t 5 2 5 6 7 3 6 5 5 6 0 : * G T W Q Y T R | ( p p H  .L L D ",
"p v v k = * = > : < - * - - o o k k z z n N z i l = 2 w m U m n p i c 0 & * = = * < < * - O o + q 9 q k N N n i k = 5 w m g f i ",
"0 2 2 ; & * * & - @ o + * * - - = = > * % 2 2 5 5 5 5 6 u u 0 4 5 2 2 2 = & = = - @ + @ - ; ; ; = > q % * 2 5 5 6 5 6 5 y 6 4 ; ",
"5 2 6 7 w t w f f 2 5 n ( ^ 0.8.:.w.t.m p %.`.!.K.D.X.L H y 3 3 6 6 6 8 w f a f f > > V q.e.e.t.i.i.p.B g +.U.{.R.o.X.K R u 3 2 ",
"7 t 8 8 7 8 7 8 8 2 g t.%.H !  .X. .:.R H '.Z.g.E.H.b...! r 3 5 7 t e 7 6 5 5 7 5 2 m a.^ Z K  . . .%.J R P.n.j.Q.h.b.[  .r 3 0 ",
"6 i 8 5 6 6 3 6 w = n p.0.Y R $.%.R w.U g 4.o.[ b.o.o.'.:.p 2 7 6 w 8 5 6 6 5 6 w 2 f p.$.Y | | %.Q 8.G J >.o.[ b.' o.K.y.y 2 9 ",
"6 6 8 5 5 6 2 0 9 5 w | ^ r.Q T ! ! ^ U Y ! b.^.A.[ o.,.^ r 5 w 8 6 7 6 5 5 5 8 5 5 8 8.O.%.R Y ! ^ Q Y G ! o.H.F.[ [ ,.^ u 2 0 ",
"e 6 6 5 6 8 2 6 5 5 5 T R ! !  .Y | | T p g K ` ` ` J J p 6 2 2 e 5 6 7 6 7 6 6 > 5 5 T Y Q ! R R | ( U p g K  .L H J J g e 5 9 ",
"< < < < < < = = @ + * z b v v N B B n x 0 i G J p g i t y x 4 & = * < 1 , = - * + + , z b v b b c n c w 6 u g J G g s t t u 2 % ",
"@ @ * @ + @ % * - * * 9 9 2 = - > > & * = 5 e t f 6 5 6 e b 6 & = = < * + @ % * - * > 9 9 = ; - = = * % = 5 t t 8 5 > 6 u v 0 2 ",
"R { | g y K ,.3.P.,. .H S y 6 5 5 6 9 7 w i t e w 2 2 M Q 0.8.p.%.t.t.G y  .3.P.T.o.` K H y 6 9 5 5 7 w w n i t c = 5 m 8.^ 8.w.",
"-.&.:.T G ,./.E.E.H.n.[  .Z 6 2 5 7 t t 8 6 6 t w 5 8 p.$.Y U ^ X.o.%.R K U.T.n.(.l.j.b...y 3 = 5 8 w t 8 6 6 6 i 5 i 9.q.Y Y $.",
"| | 8.W T $.,.` ....o.3.y.v 9 < 8 8 8 7 5 5 5 8 9 5 i s.O.! R R R | 8.W T +.>. .o.' o.,.i.p 3 9 8 t 8 7 5 5 6 w 0 = f p.y.! R R ",
"X.R | Y G ! b.l.E.[ [ o.N.r 3 0 8 8 6 7 5 6 9 9 6 > 5 | Q %.! ^ ! ^ ^ Y G L z.Y.Y.j.o.c.&.C 3 3 8 7 7 6 6 5 5 5 w = 8 W $.^ ^ Q ",
"R R | { i Z K _ X.` L H G u 6 2 t 6 6 6 2 8 6 6 < = w T Y R Y ( ! R +.T y I L _  .! R H G y 0 2 6 7 5 9 5 8 5 5 9 = 5 R Q Q ^ T ",
"W U W i k v G J G d d p p t 5 = # * < < < < = * - o % z V N n N n m n w 4 b v g G G p p p 8 2 * * , < < < > * * @ + * z k k N n ",
"p u e 5 2 0 w 0 8 8 e 8 8 9 = = * , - O @ * % % * @ @ < = O = 2 w 6 5 > = q 0 0 6 6 6 e 8 9 5 = % = @ O * & % - * * * < = = t c ",
">.>.3.) G T i w 2 5 5 6 w w 7 w 8 w = 2 B W 8.9.$.w.9.9.V t X.P.U.>.o.` J Y p e 5 5 5 6 8 w 7 7 8 w 2 2 W | 0.9.q.w.w.9.W R `./.",
"H.^.E.[ ]  .e 3 5 5 6 7 8 t 8 w s t 5 i i.%.R J ~ N.%.+.R R Z.h.Y.H.F.n.[ L y 3 5 9 8 8 8 8 8 8 s t 6 i a. .H A ~ X.%.%.! L f.k.",
"n.c.c.N.P.3.G 3 8 w i 8 5 5 5 5 5 5 > n a.$.T T ^ =.{ Q W Y >.o.j...o.o.!.:.p 4 5 8 t 8 7 5 6 6 5 5 = f p.$.Q T ^ $.{ | Q R X.b.",
"B.I.-.c.U.%.u 2 6 8 e 7 5 6 6 6 5 q * z ( ^ $.8.Q R R Q E I { o.~.K.<.&.3.$.t 2 6 8 8 6 6 5 5 5 w q = n W Q 0.| $.$.R Q T U Q <.",
"_ ' ..K ` H 6 4 6 7 8 5 9 8 0 9 6 8 * u Y ! ! R Q T { %.Y Z A F _ ' ~ L L S 6 3 6 6 6 7 7 8 6 9 9 5 * t U ! ^ Y Y Q R ^ R p A R ",
"T g s i f f 7 6 % * = 5 < 9 = ; - * # = z n m m f W m B t 2 p y G g p p p i e 6 % * = = > = ; ; , % @ = z a f n m B B n 6 3 y G ",
"y i x 6 3 u t u 2 2 2 > 2 = % O @ @ @ * 4 0 4 0 9 & % 4 4 9 v I g g g 6 3 u t e 5 5 5 5 2 & % O @ @ O * 9 5 9 0 5 % % 9 k k i w ",
"T | Q p G >.U.K.u.X. .) g y 9 = 5 8 8 8 w t 8 t f = w / W Q $.q.$.:.w.G H :.].].6.>. .R G i 9 5 5 8 8 w t f 8 t i 2 0 7.( Q w.q.",
"4.:.>.J { T.^.l.W.m.[ [ K e 2 5 7 8 8 7 8 6 6 8 7 = V t.{ R H  .+.=.$.J K P.D.j.^.o.[ ..R t 3 9 7 s e 7 7 8 8 8 6 2 T a.^ S ! =.",
"w.| ( m Y ....P n.f.N.{.%.u 2 k e t w 6 6 6 6 w 9 = Q p.Q Q R =.$.^ R J H o.j.f.h.f.h.^. .e 3 9 8 t 8 5 6 9 6 9 7 = B p.Q Q Q Q ",
"Q Q | T U %.,./.b.[ -.N.R 6 3 0 7 8 5 5 5 5 5 5 8 = m Q Q =.$.R R Q Q U T %.o.^.M.' ..N.R e 3 0 6 w 6 5 5 6 5 5 q = m 0.^ q.^ R ",
"` { { g y J K ' X.L K S y 6 2 5 7 7 7 5 7 7 5 7 > & t T R | J T ^ Q Q n p U ! &.X.R K Y g 6 5 9 7 8 5 6 7 7 6 5 5 = p R Y ^ ! R ",
"Y W E x 0 v G J v p p y p k 5 = = > > = ; 2 = = $ + 4 b x p v B U U v 4 2 p Z G p p p y u i 2 % = 2 = < 4 = = = + o < z c c x B ",
"= q 6 2 9 0 i i t t 7 9 6 5 * % * * > - # . o @ * * - 9 9 2 : # @ * > 2 9 0 x n u t 0 9 5 2 * * : * > * @ . O $ = * : 7 9 2 < - ",
"R %.>.,.,...R H g 0 2 2 5 5 0 w 8 8 s w 9 = n W 8.8.:.$.| a.7.n { X.6.D.K. .K F Z 6 2 2 2 5 w w 8 t t 8 0 2 N W w.w.:.O.%.p.| n ",
"..Z.F.F.H.H.f.' U 6 2 6 t t w 6 7 e 8 t 6 5 O.a.G Y R  .%.y.$.p [ o.F.H.Y.H.n.f.g 6 5 6 t t 8 6 8 e e t 6 5 8.a.U H R ! &.=.$.p ",
"X...[ j.b.o.o.T.Y e 3 6 8 e 8 5 > 5 5 8 5 5 w.w.R R | +.e.%.Y U  .3.o...N.K.J.!.R 6 2 6 6 8 e 5 > 5 2 8 5 2 w.$.Q Q Q %.=.$.R B ",
"K X.o.N.I.X.X.3.Z 6 2 0 8 8 6 5 q 7 > w 5 2 7.R t.Q R Q R Y Q B K o.M.M.D.o.o.o.G 2 2 w 6 8 6 5 7 7 5 q 9 = | R q.Q Q Q R Y Q B ",
"y L ......L K L r 2 5 0 w 0 0 5 6 0 6 5 = = T R Q Y R K ! =.^ m y S ' `  .L F K y 5 5 q 8 w 6 5 9 7 6 9 2 = T T ^ R R R ^ =.Q p ",
"e g J A Z Z C p p 0 = * * = 9 9 = 2 = * * % z p b n B G m U b 5 u U Y H U p p p v 9 * * * > 5 < > = = * @ @ z x c n n m U B b 2 ",
"; j u 6 u 0 0 6 5 = * + @ * % @ + o o . X . $ = - * * ; & - @ + * > 7 6 6 0 5 0 3 = % + @ # @ + + o .   X . $ - * % # & - % @ + "
};
